<svg xmlns="http://www.w3.org/2000/svg" width="69.001" height="91.915" viewBox="0 0 69.001 91.915">
  <g id="Group_152" data-name="Group 152" transform="translate(-175.821 -50.627)">
    <path id="Path_365" data-name="Path 365" d="M243.635,140.542H179.007a3.379,3.379,0,0,1-2.176-3.6c.057-8.195.075-16.391-.01-24.585a3.212,3.212,0,0,1,3.483-3.441c6.16.1,12.322.036,18.484.036h1.047c0-1.306.035-2.526-.021-3.742a1.763,1.763,0,0,0-.452-1.071,18.165,18.165,0,0,1-4.861-8.83c-.144-.62-.39-.741-.951-.736-2.6.023-5.2.012-7.806.009a2.847,2.847,0,0,1-3.142-3.171q0-8.12,0-16.241c0-2.358.708-3.223,2.993-3.656a1,1,0,0,0,.056-.164C187.57,60.43,193.838,53.232,204.3,49.68a43.3,43.3,0,0,1,4.692-1.053h4.668l1.215.227c9.746,1.809,16.571,7.312,20.464,16.384a57.341,57.341,0,0,1,1.92,6.353c1.823.171,2.787,1.231,2.788,3.218q0,8.345,0,16.69a2.825,2.825,0,0,1-3.051,3.081c-2.662.006-5.324.011-7.986-.007-.489,0-.719.1-.842.646a18.013,18.013,0,0,1-4.95,8.974,1.15,1.15,0,0,0-.383.655c-.036,1.337-.018,2.675-.018,4.1h1.045c6.161,0,12.324.067,18.484-.036a3.212,3.212,0,0,1,3.483,3.442c-.085,8.194-.067,16.39-.01,24.585A3.379,3.379,0,0,1,243.635,140.542Zm-61-5.8H239.98V114.688h-1.048q-9.421,0-18.842,0a2.817,2.817,0,0,1-3.02-3.022c-.006-1.216,0-2.433,0-3.739a19.493,19.493,0,0,1-11.5.022c0,1.266,0,2.4,0,3.535a2.859,2.859,0,0,1-3.2,3.206q-9.376,0-18.753,0h-.991Zm17.616-40.146c.7,4.691,6.554,9.107,11.515,8.735a11.673,11.673,0,0,0,11.05-11.866c.007-5.593.013-11.186-.01-16.779a14.739,14.739,0,0,0-.264-2.759c-1.345-6.869-7.678-9.9-13.757-8.665-5.492,1.113-8.9,5.369-8.944,11.076-.038,4.606-.008,9.212-.009,13.818v.7H211.25v5.74Zm30.94-22.986a19.614,19.614,0,0,0-20.938-17.214c-10,.623-18.9,8.778-18.719,17.215a21.978,21.978,0,0,0,2.233-.027.957.957,0,0,0,.672-.568,17.064,17.064,0,0,1,4.149-7.836c4.824-5.108,10.645-7.325,17.522-5.153,6.333,2,10.308,6.472,12.079,12.89.073.265.369.639.592.662A23.857,23.857,0,0,0,231.187,71.608Zm-42.8,5.777v11.4h5.645v-11.4Zm40.207,11.394h5.64V77.4h-5.64Z" transform="translate(-1 2)" fill="#78e08f"/>
  </g>
</svg>
