<svg xmlns="http://www.w3.org/2000/svg" width="757.399" height="621.145" viewBox="0 0 757.399 621.145">
  <g id="Group_1575" data-name="Group 1575" opacity="0.74">
    <path id="Path_1434" data-name="Path 1434" d="M866.19,76.263V416.881a107.519,107.519,0,0,0-18.348,18.711c-32.826,43.376-17.92,103.588-56.578,143.77-37.414,38.915-108.8,43.029-159.044,71.234-21.846,12.254-38.95,28.674-53.235,46.812H108.791c2.1-1.944,4.14-3.94,6.1-5.971,27.716-28.57,44.1-62.937,63.244-95.708s42.584-65.523,79.611-86.3c50.24-28.205,121.629-32.319,159.044-71.234,38.658-40.182,23.75-100.394,56.6-143.77,38.483-50.822,125.829-60.23,182.64-98.537,44.955-30.34,66.8-75.643,89.7-119.626Z" transform="translate(-108.791 -76.263)" fill="#e4e4e4"/>
    <path id="Path_1435" data-name="Path 1435" d="M386.161,181.562A239.8,239.8,0,0,0,449.5,152.487c3.723-2.42,7.481-5.047,9.857-8.8s3.053-8.916.5-12.548c-3.084-4.386-9.671-4.9-14.59-2.763s-8.651,6.23-12.527,9.934a105.729,105.729,0,0,1-54.771,27.565c-5.664.972-12.933,3-13.24,8.741-.214,3.977,3.661,7.214,7.6,7.764s9.182.5,12.912-.887" transform="translate(79.499 -38.818)" fill="#e4e4e4"/>
    <path id="Path_1436" data-name="Path 1436" d="M448.966,431.126c-3.68,7.012-11.248,10.883-18.121,14.84-2.222,1.284-4.426,2.621-6.578,4.027H393.3q18.069-15.778,36.155-31.5c3.454-3.02,7.429-6.214,11.994-5.919C449.365,413.074,452.645,424.114,448.966,431.126Z" transform="translate(100.529 171.152)" fill="#e4e4e4"/>
    <path id="Path_1437" data-name="Path 1437" d="M141.852,410.589a153.129,153.129,0,0,1,38.2-57.513c4.27-4.027,9.21-9.015,8.012-14.761-1.147-5.5-7.87-8.342-13.365-7.153s-9.881,5.233-13.721,9.34a141.935,141.935,0,0,0-33.456,60.665c-.949,3.624-1.758,7.4-1.1,11.091s3.135,7.28,6.766,8.2,8.043-1.855,7.911-5.6" transform="translate(-95.993 111.075)" fill="#e4e4e4"/>
  </g>
</svg>
