<svg xmlns="http://www.w3.org/2000/svg" width="85.743" height="85.743" viewBox="0 0 85.743 85.743">
  <g id="Group_145" data-name="Group 145" transform="translate(-8 -8)">
    <path id="Path_333" data-name="Path 333" d="M51.439,36.7h0a14.685,14.685,0,1,1-4.3-10.4A14.743,14.743,0,0,1,51.439,36.7Zm14-5.615h0a6.279,6.279,0,0,1-4.439-10.635l-7.938-8.007A6.279,6.279,0,0,1,42.353,8H31.123a6.279,6.279,0,0,1-10.676,4.439l-7.966,8.007A6.279,6.279,0,0,1,8,31.081v11.23a6.279,6.279,0,0,1,4.439,10.7l8.007,7.938a6.279,6.279,0,0,1,10.7,4.439H42.38a6.279,6.279,0,0,1,10.7-4.439l7.938-7.938a6.279,6.279,0,0,1,4.439-10.7Z" fill="#78e08f"/>
    <path id="Path_334" data-name="Path 334" d="M303.021,291.813h0a10.345,10.345,0,0,1-2.987,7.274,10.167,10.167,0,0,1-14.452,0,10.317,10.317,0,0,1,0-14.549,9.97,9.97,0,0,1,14.327-.041,10.345,10.345,0,0,1,2.987,7.316Zm9.681-3.928h0a4.4,4.4,0,0,1-3.084-7.5l-5.532-5.532a4.356,4.356,0,0,1-7.44-3.1h-7.869a4.356,4.356,0,0,1-7.44,3.1L275.8,280.39a4.4,4.4,0,0,1-3.084,7.5v7.855a4.4,4.4,0,0,1,3.084,7.5l5.532,5.532a4.356,4.356,0,0,1,7.44,3.139h7.814a4.356,4.356,0,0,1,7.44-3.1l5.532-5.532a4.4,4.4,0,0,1,3.139-7.537Z" transform="translate(-218.958 -218.164)" fill="#e67e22"/>
  </g>
</svg>
