<svg xmlns="http://www.w3.org/2000/svg" width="481.362" height="311.538" viewBox="0 0 481.362 311.538">
  <g id="Group_1576" data-name="Group 1576" transform="translate(18.185)">
    <g id="Group_1050" data-name="Group 1050" transform="translate(256.817 0)">
      <g id="Group_1048" data-name="Group 1048" transform="translate(0)">
        <path id="Path_1438" data-name="Path 1438" d="M581.405,298.916a33.1,33.1,0,0,0-24.419,5.255,32.447,32.447,0,0,0,45.338,8.4A33.1,33.1,0,0,0,581.405,298.916Z" transform="translate(-458.813 -130.478)" fill="#22751b"/>
        <path id="Path_1439" data-name="Path 1439" d="M521.26,228.428a33.093,33.093,0,0,0-22.089,11.663,32.446,32.446,0,0,0,45.92-4.177A33.106,33.106,0,0,0,521.26,228.428Z" transform="translate(-484.909 -162.114)" fill="#22751b"/>
        <path id="Path_1440" data-name="Path 1440" d="M624.709,268.831a33.1,33.1,0,0,0-24.419,5.255,32.448,32.448,0,0,0,45.338,8.4A33.1,33.1,0,0,0,624.709,268.831Z" transform="translate(-439.267 -144.058)" fill="#22751b"/>
        <path id="Path_1441" data-name="Path 1441" d="M530.5,260.635a33.1,33.1,0,0,0-24.421,5.255,32.447,32.447,0,0,0,45.338,8.4A33.093,33.093,0,0,0,530.5,260.635Z" transform="translate(-481.793 -147.757)" fill="#22751b"/>
        <path id="Path_1442" data-name="Path 1442" d="M524.955,215.23a33.1,33.1,0,0,0-1.537,24.932,32.446,32.446,0,0,0,20.334-41.383A33.1,33.1,0,0,0,524.955,215.23Z" transform="translate(-474.743 -175.437)" fill="#22751b"/>
        <path id="Path_1443" data-name="Path 1443" d="M573.906,204.9a33.1,33.1,0,0,0-15.633-19.482,32.446,32.446,0,0,0,12.792,44.3A33.093,33.093,0,0,0,573.906,204.9Z" transform="translate(-460.077 -181.47)" fill="#22751b"/>
        <path id="Path_1444" data-name="Path 1444" d="M569.483,286.281A33.1,33.1,0,0,0,553.849,266.8a32.448,32.448,0,0,0,12.794,44.3A33.1,33.1,0,0,0,569.483,286.281Z" transform="translate(-462.074 -144.735)" fill="#22751b"/>
        <path id="Path_1445" data-name="Path 1445" d="M593.981,200.7c-8.955.39-16.961,4.935-22.981,12.133,6.624,6.647,15,10.476,23.951,10.086s16.959-4.935,22.979-12.133C611.306,204.141,602.935,200.312,593.981,200.7Z" transform="translate(-452.488 -174.581)" fill="#22751b"/>
        <path id="Path_1446" data-name="Path 1446" d="M589.8,248.23a24.3,24.3,0,0,0-9.946,15.4,23.813,23.813,0,0,0,27.887-19.173A24.294,24.294,0,0,0,589.8,248.23Z" transform="translate(-448.492 -154.983)" fill="#22751b"/>
        <path id="Path_1447" data-name="Path 1447" d="M526.617,290.258a24.289,24.289,0,0,0-9.945,15.4,23.815,23.815,0,0,0,27.887-19.171A24.3,24.3,0,0,0,526.617,290.258Z" transform="translate(-477.01 -136.013)" fill="#22751b"/>
        <path id="Path_1448" data-name="Path 1448" d="M583.6,234.649a16.284,16.284,0,0,0-3.663,11.736,15.971,15.971,0,0,0,14.578-17.392A16.287,16.287,0,0,0,583.6,234.649Z" transform="translate(-448.474 -161.799)" fill="#22751b"/>
        <path id="Path_1449" data-name="Path 1449" d="M535.968,310.921a16.289,16.289,0,0,0-3.663,11.736,15.971,15.971,0,0,0,14.579-17.392A16.288,16.288,0,0,0,535.968,310.921Z" transform="translate(-469.974 -127.373)" fill="#22751b"/>
        <path id="Path_1450" data-name="Path 1450" d="M541.787,237.856a16.294,16.294,0,0,0-3.662,11.736A15.971,15.971,0,0,0,552.7,232.2,16.29,16.29,0,0,0,541.787,237.856Z" transform="translate(-467.347 -160.352)" fill="#22751b"/>
        <path id="Path_1451" data-name="Path 1451" d="M513.644,194.424a16.29,16.29,0,0,0-3.662,11.736,15.971,15.971,0,0,0,14.578-17.393A16.3,16.3,0,0,0,513.644,194.424Z" transform="translate(-480.05 -179.956)" fill="#22751b"/>
        <path id="Path_1452" data-name="Path 1452" d="M615.486,254.858a16.283,16.283,0,0,0-3.663,11.734A15.968,15.968,0,0,0,626.4,249.2,16.281,16.281,0,0,0,615.486,254.858Z" transform="translate(-434.082 -152.678)" fill="#22751b"/>
        <path id="Path_1453" data-name="Path 1453" d="M579.1,245.809a16.291,16.291,0,0,0-11.987-2.727A15.969,15.969,0,0,0,585.6,256.246,16.29,16.29,0,0,0,579.1,245.809Z" transform="translate(-454.241 -155.53)" fill="#22751b"/>
        <path id="Path_1454" data-name="Path 1454" d="M538.266,249.205a16.293,16.293,0,0,0-11.987-2.727,15.967,15.967,0,0,0,18.485,13.164A16.294,16.294,0,0,0,538.266,249.205Z" transform="translate(-472.673 -153.997)" fill="#22751b"/>
        <path id="Path_1455" data-name="Path 1455" d="M502.861,188.342a16.289,16.289,0,0,0-11.988-2.729,15.972,15.972,0,0,0,18.485,13.165A16.285,16.285,0,0,0,502.861,188.342Z" transform="translate(-488.655 -181.47)" fill="#22751b"/>
        <path id="Path_1456" data-name="Path 1456" d="M556.406,217.648a24.3,24.3,0,0,0-18.326-.524,23.813,23.813,0,0,0,30.849,13.914A24.3,24.3,0,0,0,556.406,217.648Z" transform="translate(-467.347 -167.852)" fill="#22751b"/>
        <path id="Path_1457" data-name="Path 1457" d="M573.565,225.261a24.3,24.3,0,0,0-16.579,7.824,23.814,23.814,0,0,0,33.805-1.55A24.294,24.294,0,0,0,573.565,225.261Z" transform="translate(-458.813 -163.495)" fill="#22751b"/>
        <path id="Path_1458" data-name="Path 1458" d="M601.127,286.653a24.3,24.3,0,0,0-18.239,1.848,23.812,23.812,0,0,0,32.387,9.811A24.294,24.294,0,0,0,601.127,286.653Z" transform="translate(-447.122 -136.225)" fill="#22751b"/>
        <path id="Path_1459" data-name="Path 1459" d="M578.214,261.285a24.287,24.287,0,0,0-18.281,1.379,23.816,23.816,0,0,0,32.125,10.641A24.292,24.292,0,0,0,578.214,261.285Z" transform="translate(-457.483 -147.757)" fill="#22751b"/>
        <ellipse id="Ellipse_6" data-name="Ellipse 6" cx="7.057" cy="16.921" rx="7.057" ry="16.921" transform="matrix(0.314, -0.949, 0.949, 0.314, 0, 38.609)" fill="#22751b"/>
        <path id="Path_1460" data-name="Path 1460" d="M594.139,186.834a24.291,24.291,0,0,0-9.946,15.4,23.816,23.816,0,0,0,27.888-19.171A24.29,24.29,0,0,0,594.139,186.834Z" transform="translate(-446.533 -182.696)" fill="#22751b"/>
        <g id="Group_1044" data-name="Group 1044" transform="translate(16.44 13.88)">
          <path id="Path_1461" data-name="Path 1461" d="M579.541,400.7l-21.128-51.457c-3.1-7.541-6.3-15.338-7.194-23.653-.919-8.517.665-17.1,2.2-25.395.406-2.2.813-4.406,1.174-6.608,1.524-9.273,2.588-21.177-2.755-30.984-3.438-6.313-9.215-11.086-14.8-15.7-5.877-4.855-11.952-9.874-15.441-16.744a55.833,55.833,0,0,1-3.878-11.6,65.844,65.844,0,0,0-2.98-9.625,32.324,32.324,0,0,0-14.064-15.547l.62-1.123a33.606,33.606,0,0,1,14.623,16.167,66.778,66.778,0,0,1,3.043,9.813,54.835,54.835,0,0,0,3.781,11.335c3.367,6.631,9.338,11.566,15.113,16.337,5.679,4.692,11.553,9.546,15.11,16.077,5.528,10.149,4.451,22.329,2.894,31.807-.363,2.208-.772,4.419-1.18,6.631-1.514,8.207-3.08,16.692-2.181,25.025.878,8.135,4.044,15.846,7.1,23.3l21.128,51.457Z" transform="translate(-500.672 -192.26)" fill="#22751b"/>
        </g>
        <g id="Group_1045" data-name="Group 1045" transform="translate(71.607 16.552)">
          <path id="Path_1462" data-name="Path 1462" d="M540.893,284.568a2.989,2.989,0,0,1-2.21-.846l.956-.855a1.985,1.985,0,0,0,1.792.369c2.942-.531,9.578-5.383,20.958-31.913,16.848-39.28,46.042-57.046,46.336-57.222l.656,1.1c-.288.174-29.138,17.747-45.814,56.625-11.107,25.892-18.1,32.067-22.007,32.686A4.238,4.238,0,0,1,540.893,284.568Z" transform="translate(-538.682 -194.101)" fill="#22751b"/>
        </g>
        <g id="Group_1046" data-name="Group 1046" transform="translate(85.534 105.971)">
          <path id="Path_1463" data-name="Path 1463" d="M549.522,348.237l-1.244-.318c.091-.351,9.276-35.251,33.31-39.184,23.39-3.827,63.946-52.534,64.352-53.024l.988.817C645.256,258.55,605.655,306.1,581.8,310,558.59,313.8,549.609,347.893,549.522,348.237Z" transform="translate(-548.278 -255.711)" fill="#22751b"/>
        </g>
        <g id="Group_1047" data-name="Group 1047" transform="translate(130.737 80.468)">
          <path id="Path_1464" data-name="Path 1464" d="M587.811,307.925l-1.25-.29c.019-.073,1.611-7.505-3.891-23.586-5.63-16.46-2.237-45.617-2.2-45.91l1.271.152c-.033.29-3.39,29.159,2.145,45.341C589.526,300.13,587.883,307.615,587.811,307.925Z" transform="translate(-579.423 -238.139)" fill="#548a13"/>
        </g>
      </g>
      <g id="Group_1049" data-name="Group 1049" transform="translate(50.452 221.775)">
        <path id="Path_1465" data-name="Path 1465" d="M577.795,406.607H551.767a12.428,12.428,0,0,1-12.212-10.118L528.02,335.5h73.521l-11.535,60.988A12.427,12.427,0,0,1,577.795,406.607Z" transform="translate(-522.34 -335.5)" fill="#ff706f"/>
        <rect id="Rectangle_1474" data-name="Rectangle 1474" width="86.219" height="8.752" fill="#ee3537"/>
      </g>
    </g>
    <g id="Group_1053" data-name="Group 1053" transform="translate(0 97.938)">
      <path id="Path_1466" data-name="Path 1466" d="M541.621,400.674c-.38,5.376-52,6.1-115.3,1.618s-114.3-12.476-113.921-17.853,52-6.1,115.3-1.618S542,395.3,541.621,400.674Z" transform="translate(-312.397 -191.632)" fill="#f0f0f0" style="mix-blend-mode: multiply;isolation: isolate"/>
      <g id="Group_1052" data-name="Group 1052" transform="translate(10.757)">
        <g id="Group_1051" data-name="Group 1051">
          <path id="Path_1467" data-name="Path 1467" d="M593.926,254.1l-50.087-3.926-46.4,140.061L345.689,378.344,319.809,269.29l212.612,15.167" transform="translate(-319.809 -250.176)" fill="none" stroke="#2c3e50" stroke-linejoin="round" stroke-width="3"/>
          <path id="Path_1468" data-name="Path 1468" d="M489.442,346.679l1.736.136c8.627.676,15.427,3.7,13.7,25.772h0a15.669,15.669,0,0,1-16.846,14.4l-150.507-11.8" transform="translate(-311.814 -206.618)" fill="none" stroke="#2c3e50" stroke-linejoin="round" stroke-width="3"/>
          <path id="Path_1469" data-name="Path 1469" d="M421.833,386.53a14.426,14.426,0,1,0,15.508-13.254A14.425,14.425,0,0,0,421.833,386.53Z" transform="translate(-273.778 -194.633)" fill="#2c3e50"/>
          <path id="Path_1470" data-name="Path 1470" d="M341.538,380.237a14.425,14.425,0,1,0,15.508-13.254A14.426,14.426,0,0,0,341.538,380.237Z" transform="translate(-310.021 -197.474)" fill="#2c3e50"/>
          <line id="Line_30" data-name="Line 30" x1="12.761" y2="105.526" transform="translate(155.389 31.794)" fill="none" stroke="#2c3e50" stroke-linejoin="round" stroke-width="3"/>
          <line id="Line_31" data-name="Line 31" x1="10.53" y2="105.701" transform="translate(126.627 29.365)" fill="none" stroke="#2c3e50" stroke-linejoin="round" stroke-width="3"/>
          <line id="Line_32" data-name="Line 32" x1="8.298" y2="105.876" transform="translate(97.864 26.936)" fill="none" stroke="#2c3e50" stroke-linejoin="round" stroke-width="3"/>
          <line id="Line_33" data-name="Line 33" x1="6.067" y2="106.051" transform="translate(69.102 24.507)" fill="none" stroke="#2c3e50" stroke-linejoin="round" stroke-width="3"/>
          <line id="Line_34" data-name="Line 34" x1="1.604" y2="106.401" transform="translate(40.339 21.902)" fill="none" stroke="#2c3e50" stroke-linejoin="round" stroke-width="3"/>
          <line id="Line_35" data-name="Line 35" x1="193.651" y1="15.178" transform="translate(7.508 50.638)" fill="none" stroke="#2c3e50" stroke-linejoin="round" stroke-width="3"/>
          <line id="Line_36" data-name="Line 36" x1="168.608" y1="13.215" transform="translate(18.761 91.685)" fill="none" stroke="#2c3e50" stroke-linejoin="round" stroke-width="3"/>
        </g>
      </g>
    </g>
    <g id="Group_1577" data-name="Group 1577" transform="translate(-18.615 71.821)">
      <ellipse id="Ellipse_7" data-name="Ellipse 7" cx="35" cy="35.5" rx="35" ry="35.5" transform="translate(0.43 -0.273)" fill="#fdcb6e"/>
      <g id="Group_1055" data-name="Group 1055" transform="translate(12.492 15.274)">
        <path id="Path_1471" data-name="Path 1471" d="M115.9,97.377A3.075,3.075,0,1,0,112.82,94.3,3.075,3.075,0,0,0,115.9,97.377Zm-27.675,0A3.075,3.075,0,1,0,85.145,94.3,3.075,3.075,0,0,0,88.22,97.377Zm-9.033-8.6,1.719,2.549,10.2-6.878L89.384,81.9ZM114.731,81.9l-1.719,2.549,10.2,6.878,1.719-2.549-5.345-3.605ZM102,115.827a25.049,25.049,0,0,0-16.855,6.15V118.9A25.049,25.049,0,0,1,102,112.752a25.532,25.532,0,0,1,16.97,6.15v3.075A25.532,25.532,0,0,0,102,115.827Z" transform="translate(-79.187 -81.901)" fill="#2c3e50" fill-rule="evenodd"/>
      </g>
    </g>
  </g>
</svg>
