<svg id="analytics" xmlns="http://www.w3.org/2000/svg" width="75.771" height="89.023" viewBox="0 0 75.771 89.023">
  <g id="Group_105" data-name="Group 105" transform="translate(34.124 43.03)">
    <g id="Group_104" data-name="Group 104">
      <rect id="Rectangle_41" data-name="Rectangle 41" width="14.836" height="2.967" fill="#2c3e50"/>
    </g>
  </g>
  <g id="Group_107" data-name="Group 107" transform="translate(34.124 48.965)">
    <g id="Group_106" data-name="Group 106">
      <rect id="Rectangle_42" data-name="Rectangle 42" width="8.902" height="2.967" fill="#2c3e50"/>
    </g>
  </g>
  <g id="Group_109" data-name="Group 109" transform="translate(0 0)">
    <g id="Group_108" data-name="Group 108">
      <path id="Path_322" data-name="Path 322" d="M110.37,73.36q-.1-.11-.211-.212h0l-7.666-7.673V23.91c0-.033-.016-.061-.019-.093a1.377,1.377,0,0,0-.076-.38,1.438,1.438,0,0,0-.053-.139,1.483,1.483,0,0,0-.3-.435L79.635.439a1.425,1.425,0,0,0-.445-.3A1.308,1.308,0,0,0,79.062.1a1.431,1.431,0,0,0-.4-.08c-.028,0-.053-.016-.082-.016h-29.5A1.484,1.484,0,0,0,47.6,1.484V11.869H43.147a1.484,1.484,0,0,0-1.484,1.484v5.935H37.213a1.484,1.484,0,0,0-1.484,1.484V87.54a1.484,1.484,0,0,0,1.484,1.484H87.657A1.484,1.484,0,0,0,89.14,87.54V81.6h4.451a1.484,1.484,0,0,0,1.484-1.484V74.187h4.2l4.92,4.92a4.219,4.219,0,0,0,6.18-5.747ZM80.069,5.07l8.679,8.679,8.679,8.678H80.069V5.07Zm6.1,80.986H38.7v-63.8h2.967V80.121A1.484,1.484,0,0,0,43.147,81.6H86.173Zm5.935-7.418H44.631v-63.8H47.6V72.7a1.484,1.484,0,0,0,1.484,1.484H92.108ZM50.565,71.219V2.972H77.1V23.91a1.484,1.484,0,0,0,1.484,1.484h20.94V62.507l-5.76-5.76A19.2,19.2,0,1,0,88.082,63L96.3,71.219H50.565ZM93.294,47.333A16.172,16.172,0,1,1,77.123,31.161,16.191,16.191,0,0,1,93.294,47.333ZM108.062,77.01a1.253,1.253,0,0,1-.889.367,1.239,1.239,0,0,1-.888-.368L90.571,61.291l1.771-1.771L99.526,66.7v.065h.065l8.47,8.47A1.252,1.252,0,0,1,108.062,77.01Z" transform="translate(-35.729 0)" fill="#78e08f"/>
    </g>
  </g>
  <g id="Group_111" data-name="Group 111" transform="translate(27.299 33.238)">
    <g id="Group_110" data-name="Group 110">
      <path id="Path_323" data-name="Path 323" d="M197.024,179.224a14.095,14.095,0,1,0,14.095,14.095A14.095,14.095,0,0,0,197.024,179.224Zm0,25.222a11.127,11.127,0,1,1,11.127-11.127A11.127,11.127,0,0,1,197.024,204.446Z" transform="translate(-182.929 -179.224)" fill="#e67e22"/>
    </g>
  </g>
</svg>
