<svg xmlns="http://www.w3.org/2000/svg" width="50.148" height="53" viewBox="0 0 50.148 53">
  <g id="Group_1265" data-name="Group 1265" transform="translate(-644.852 -2062)">
    <path id="Path_373" data-name="Path 373" d="M1754.15,1779.3a9.15,9.15,0,1,0-9.15-9.15A9.15,9.15,0,0,0,1754.15,1779.3Zm0-17.106a7.956,7.956,0,1,1-7.956,7.956A7.956,7.956,0,0,1,1754.15,1762.194Z" transform="translate(-1068.3 335.7)" fill="#78e08f" opacity="0.5"/>
    <path id="Path_374" data-name="Path 374" d="M1628.706,1650.413A17.706,17.706,0,1,0,1611,1632.706,17.706,17.706,0,0,0,1628.706,1650.413Zm0-33.1a15.4,15.4,0,1,1-15.4,15.4A15.4,15.4,0,0,1,1628.706,1617.311Z" transform="translate(-966.148 447)" fill="#78e08f"/>
  </g>
</svg>
