<svg xmlns="http://www.w3.org/2000/svg" width="91.093" height="91.093" viewBox="0 0 91.093 91.093">
  <g id="Group_147" data-name="Group 147" transform="translate(-12 -31)">
    <path id="Path_354" data-name="Path 354" d="M44.737,31v2.847H16.773c-1.636,0-1.926.285-1.926,1.9q0,19.925,0,39.851V76.5h85.4v-.931q0-19.926,0-39.851c0-1.411-.122-1.583-1.423-1.986V31h.712a5.307,5.307,0,0,1,3.558,3.558v61.2c-.917,2.561-2.693,3.619-5.445,3.592-9.072-.089-18.146-.034-27.219-.034h-1.1L72.9,113.553a10.163,10.163,0,0,0,1.078-.006,1.977,1.977,0,0,1,2.26,1.412c.527,1.253,1.216,2.437,1.792,3.671a.941.941,0,0,0,1.017.63c1.352-.038,2.706-.013,4.124-.013v2.847H31.927v-2.847c1.49,0,2.852.032,4.211-.025a1.211,1.211,0,0,0,.853-.531,22.146,22.146,0,0,0,1.545-3.1c.593-1.584,1.574-2.369,3.3-2.049a1.346,1.346,0,0,0,.38-.052L45.755,99.32H44.66q-14.053,0-28.105,0a4.467,4.467,0,0,1-4.208-2.746c-.133-.262-.232-.541-.347-.812v-61.2A5.307,5.307,0,0,1,15.558,31ZM14.847,79.423v.792q0,7.248,0,14.5c0,1.432.336,1.761,1.792,1.761H98.457c1.453,0,1.788-.33,1.789-1.764q0-7.248,0-14.5c0-.256-.032-.511-.05-.789ZM67.466,116.4H66.382q-12.091,0-24.183.01c-.325,0-.819.045-.943.247-.487.793-.858,1.658-1.284,2.521H75.117a10.146,10.146,0,0,1-.528-1.119,2.069,2.069,0,0,0-2.594-1.683c-.882.157-1.434-.379-1.647-1.258-.4-1.667-.828-3.331-1.245-5q-1.347-5.374-2.7-10.756H48.682l-3.549,14.226H67.466Z" fill="#78e08f"/>
    <path id="Path_355" data-name="Path 355" d="M171.733,31a4.827,4.827,0,0,1,2.849,2.127,5.175,5.175,0,0,1,.68,2.248q.064,16.988.024,33.976a4.454,4.454,0,0,1-4.316,4.342q-19.879.019-39.758,0a4.522,4.522,0,0,1-4.31-4.083c-.085-1.226-.484-1.6-1.726-1.6-1.3,0-2.592,0-3.929,0v-2.7a37.474,37.474,0,0,1,5.278.052,3.888,3.888,0,0,1,3.217,3.85c.089,1.369.367,1.638,1.741,1.639q19.612,0,39.224,0c1.394,0,1.737-.34,1.737-1.727q0-16.766,0-33.532c0-1.4-.34-1.744-1.718-1.745q-5.87-.006-11.741,0h-.773v1.038q0,7.071,0,14.142c0,1.45-.454,1.9-1.917,1.9q-5.248,0-10.5,0c-1.339,0-1.818-.479-1.819-1.818,0-5.039,0-10.078,0-15.26h-.871q-5.782,0-11.563,0c-1.486,0-1.8.323-1.8,1.844,0,2.164.006,4.329,0,6.493a4.246,4.246,0,0,1-4.461,4.472q-6.137,0-12.274,0c-1.173,0-1.475.225-1.864,1.395h-2.636c-.287-2.2,1.7-4.224,4.2-4.236,4.091-.02,8.183-.005,12.274-.006,1.561,0,1.917-.361,1.917-1.942q0-3.069,0-6.137a4.532,4.532,0,0,1,3.245-4.572,2.728,2.728,0,0,0,.313-.158ZM146.864,42.324h8.43v-8.43h-8.43Zm0,5.69h8.459v-2.73H146.86Z" transform="translate(-79.314)" fill="#78e08f"/>
    <path id="Path_356" data-name="Path 356" d="M80.86,158.991c0,1.892.006,3.64,0,5.388-.005,1.22-.508,1.721-1.73,1.727q-2.534.011-5.068,0c-1.225-.005-1.729-.5-1.737-1.72-.012-1.719-.011-3.438-.02-5.157,0-.051-.043-.1-.1-.238-.814,0-1.666.012-2.518,0a1.432,1.432,0,0,1-1.339-2.3c2.286-4.148,4.574-8.3,6.924-12.409a1.883,1.883,0,0,1,1.368-.87,1.964,1.964,0,0,1,1.349.93c2.283,4.014,4.5,8.064,6.734,12.106.86,1.557.288,2.542-1.474,2.548C82.477,158.993,81.713,158.991,80.86,158.991Zm-2.846,4.253c0-1.818,0-3.558,0-5.3,0-1.322.489-1.794,1.833-1.8.431,0,.862,0,1.435,0L76.59,147.7,71.9,156.144c.6,0,1.064,0,1.524,0,1.226.012,1.733.506,1.744,1.711.008.918,0,1.836,0,2.754v2.634Z" transform="translate(-46.087 -92.408)" fill="#2c3e50"/>
    <path id="Path_357" data-name="Path 357" d="M248.208,199.509c-.858,0-1.717.008-2.575,0-1.114-.014-1.651-.525-1.66-1.613q-.021-2.664,0-5.327a1.424,1.424,0,0,1,1.589-1.593q2.663-.023,5.327,0c1.091.009,1.609.543,1.616,1.656q.017,2.619,0,5.239a1.445,1.445,0,0,1-1.634,1.639C249.983,199.519,249.1,199.509,248.208,199.509Zm-1.349-2.906h2.737V193.86h-2.737Z" transform="translate(-190.692 -131.502)" fill="#e67e22"/>
    <path id="Path_358" data-name="Path 358" d="M308.236,225.993v-2.742h14.121v2.742Z" transform="translate(-243.531 -158.046)" fill="#e67e22"/>
    <path id="Path_359" data-name="Path 359" d="M168.952,134.944v2.842H166.94q-3.069,0-6.137,0c-1.184,0-1.485.225-1.862,1.387h-2.718a4.113,4.113,0,0,1,4-4.213C163.1,134.894,165.971,134.944,168.952,134.944Z" transform="translate(-118.563 -85.436)" fill="#e67e22"/>
    <path id="Path_360" data-name="Path 360" d="M43.988,70.011c0-1.908-.012-3.742.005-5.575A1.3,1.3,0,0,1,45.267,63c1.913-.065,3.83-.021,5.791-.021v2.8h-4.2v4.238Z" transform="translate(-26.294 -26.276)" fill="#78e08f"/>
    <path id="Path_361" data-name="Path 361" d="M182.217,174.939v2.822h-3.17c-.741,0-1.482,0-2.223,0-1.113,0-1.428.245-1.785,1.386h-2.707a4.017,4.017,0,0,1,3.692-4.177C178.052,174.824,180.1,174.939,182.217,174.939Z" transform="translate(-131.805 -118.294)" fill="#e67e22"/>
    <path id="Path_362" data-name="Path 362" d="M311.034,191.4v2.721h-2.768V191.4Z" transform="translate(-243.555 -131.861)" fill="#e67e22"/>
    <path id="Path_363" data-name="Path 363" d="M340.249,194.108v-2.727h2.742v2.727Z" transform="translate(-269.848 -131.847)" fill="#e67e22"/>
    <path id="Path_364" data-name="Path 364" d="M241.7,330.389a5.693,5.693,0,1,1,5.692-5.715A5.959,5.959,0,0,1,241.7,330.389Zm-.06-2.847a2.847,2.847,0,1,0-2.786-2.883A2.636,2.636,0,0,0,241.637,327.542Z" transform="translate(-184.15 -236.763)" fill="#78e08f"/>
  </g>
</svg>
