<svg xmlns="http://www.w3.org/2000/svg" width="65.184" height="65.184" viewBox="0 0 65.184 65.184">
  <g id="Group_146" data-name="Group 146" transform="translate(341.22 15.247)">
    <path id="Path_335" data-name="Path 335" d="M-278.455,49.937H-338.8a4.152,4.152,0,0,1-2.419-2.419V-12.828a4.152,4.152,0,0,1,2.419-2.419h60.346a4.152,4.152,0,0,1,2.419,2.419V47.518A4.151,4.151,0,0,1-278.455,49.937Zm-60.7-22.45h61.034V.062h-61.034Zm61.086,2.123h-61.114v.676q0,8.116,0,16.232c0,1.145.236,1.384,1.371,1.384h58.371c1.135,0,1.371-.238,1.371-1.383q0-8.116,0-16.232Zm0-36.719c0-1.557,0-3.059,0-4.56,0-1.361-.181-1.544-1.53-1.544h-48.5q-4.9,0-9.8,0c-1.01,0-1.273.268-1.276,1.287,0,1.167,0,2.334,0,3.5v1.314Zm-61.085,5.06h61.034V-5.031h-61.034Z" fill="#78e08f"/>
    <path id="Path_336" data-name="Path 336" d="M-169.142,136.912c-1.01,0-1.94,0-2.869,0-.851,0-1.2-.347-1.2-1.188q-.007-2.9,0-5.792c0-.805.357-1.16,1.166-1.16q10.025,0,20.05,0c.839,0,1.181.353,1.183,1.208q.006,2.864,0,5.729c0,.851-.346,1.2-1.187,1.2-.931.005-1.863,0-2.886,0v.7q0,3.628,0,7.256a2.149,2.149,0,0,1-2.248,2.225q-4.9,0-9.8,0a2.147,2.147,0,0,1-2.2-2.208C-169.145,142.259-169.142,139.631-169.142,136.912Zm16.268-6.111c-1.576,0-3.08.016-4.584-.01a.77.77,0,0,0-.841.54c-1.391,3.036-5.259,3.467-6.99.665a2.243,2.243,0,0,0-2.452-1.206c-.758.059-1.525.011-2.288.011h-1.106v4.079c.979,0,1.91,0,2.841,0,.838.005,1.176.354,1.184,1.206,0,.265,0,.531,0,.783h10.19c0-.215,0-.384,0-.552.006-1.186.262-1.438,1.461-1.438h2.585Zm-4.075,8.193h-10.109v1.963h10.109Zm-.013,6.058v-1.983h-10.1v1.983Zm-6.866-14.225a1.987,1.987,0,0,0,1.976.98,1.714,1.714,0,0,0,1.6-.98Z" transform="translate(-146.613 -125.68)" fill="#e67e22"/>
    <path id="Path_337" data-name="Path 337" d="M-265.068,136.9v2.046h-6.053v2.026h9.1v2.023h-9.084v2.048h9.071v2.029c-.191.009-.4.027-.6.028q-4.137,0-8.274,0a2.152,2.152,0,0,1-2.273-2.264c0-2.608,0-5.216,0-7.92h-.823c-3.626-.005-3.243.364-3.25-3.279q0-1.814,0-3.628c0-.894.336-1.234,1.22-1.235q4.71,0,9.419,0h.526v2.012h-1.761a2.055,2.055,0,0,0,1.772,1.076v1.967a2.974,2.974,0,0,1-1.91-.509,4.569,4.569,0,0,1-1.872-2.105c-.079-.17-.3-.388-.456-.39-1.608-.029-3.217-.018-4.866-.018v4.078c.921,0,1.827,0,2.733,0,.98,0,1.3.314,1.3,1.283,0,.229,0,.458,0,.732Z" transform="translate(-55.811 -125.68)" fill="#e67e22"/>
    <path id="Path_338" data-name="Path 338" d="M-8.872,133.869V132.01l1.791-.928-.082-.245H-8.853V128.77h.58q4.646,0,9.292,0c.97,0,1.286.319,1.287,1.3q0,2.769,0,5.537c0,1-.313,1.307-1.338,1.31q-1.273,0-2.545.01a.934.934,0,0,0-.19.064v.652q0,3.628,0,7.255a2.147,2.147,0,0,1-2.206,2.2c-2.968,0-5.935,0-8.947,0v-2.011H-3.85v-2.048h-9.083v-2.023H-3.84v-2.048H-9.865v-2.024H-3.8c0-.374-.01-.7,0-1.03a.966.966,0,0,1,1.04-1.028c.975-.015,1.951,0,2.979,0V130.8H-1.385c-.594,0-1.192.041-1.781-.009a2.062,2.062,0,0,0-2.452,1.213A3.571,3.571,0,0,1-8.872,133.869Z" transform="translate(-286.492 -125.682)" fill="#e67e22"/>
    <path id="Path_339" data-name="Path 339" d="M-122.869,289.108v1.958h-1.953v-1.958Z" transform="translate(-188.848 -265.607)" fill="#2c3e50"/>
    <path id="Path_340" data-name="Path 340" d="M-92.937,288.992h1.954v1.965h-1.954Z" transform="translate(-216.674 -265.506)" fill="#2c3e50"/>
    <path id="Path_341" data-name="Path 341" d="M-58.891,291.084h-1.931v-1.976h1.931Z" transform="translate(-244.7 -265.607)" fill="#2c3e50"/>
    <path id="Path_342" data-name="Path 342" d="M-169,366.886c0,1.315.006,2.629,0,3.944a2.148,2.148,0,0,1-2.137,2.141q-3.976.01-7.951,0a2.142,2.142,0,0,1-2.125-2.153q-.009-3.944,0-7.888a2.142,2.142,0,0,1,2.169-2.173q3.944-.008,7.888,0A2.149,2.149,0,0,1-169,362.942C-169,364.256-169,365.571-169,366.886Zm-3.736-4.055h-6.415v6.416Zm1.674,1.74-6.338,6.337h6.338Z" transform="translate(-139.63 -328.13)" fill="#2c3e50"/>
    <path id="Path_343" data-name="Path 343" d="M-301.22,366.865c0-1.314,0-2.629,0-3.944a2.145,2.145,0,0,1,2.178-2.164q3.944-.007,7.887,0a2.143,2.143,0,0,1,2.148,2.13q.011,3.975,0,7.951a2.144,2.144,0,0,1-2.146,2.132q-3.976.009-7.951,0a2.147,2.147,0,0,1-2.115-2.1C-301.228,369.537-301.22,368.2-301.22,366.865Zm2.058,2.257,6.312-6.3h-6.312Zm8.11-4.579-6.346,6.345h6.346Z" transform="translate(-34.905 -328.131)" fill="#2c3e50"/>
    <path id="Path_344" data-name="Path 344" d="M-55.137,360.757c1.315,0,2.629,0,3.944,0A2.148,2.148,0,0,1-49,362.974q.005,3.912,0,7.824a2.143,2.143,0,0,1-2.168,2.175q-3.944.008-7.888,0a2.146,2.146,0,0,1-2.159-2.183q-.007-3.944,0-7.888a2.148,2.148,0,0,1,2.135-2.143C-57.766,360.751-56.452,360.757-55.137,360.757Zm-3.989,2.065v6.4l6.4-6.4Zm1.6,8.077h6.43v-6.388Z" transform="translate(-244.352 -328.133)" fill="#2c3e50"/>
    <path id="Path_345" data-name="Path 345" d="M50.992,403.019v-1.944h10.12v1.944Z" transform="translate(-342.279 -363.319)" fill="#2c3e50"/>
    <path id="Path_346" data-name="Path 346" d="M82.99,435.014v-1.945h6.047v1.945Z" transform="translate(-370.203 -391.24)" fill="#2c3e50"/>
    <path id="Path_347" data-name="Path 347" d="M53.084,371.026h-1.96v-1.972h1.96Z" transform="translate(-342.394 -335.375)" fill="#2c3e50"/>
    <path id="Path_348" data-name="Path 348" d="M51.018,435.078v-1.954h1.965v1.954Z" transform="translate(-342.302 -391.288)" fill="#2c3e50"/>
    <path id="Path_349" data-name="Path 349" d="M82.89,371.111v-1.942h1.976v1.942Z" transform="translate(-370.116 -335.475)" fill="#2c3e50"/>
    <path id="Path_350" data-name="Path 350" d="M-276.92,17.01h1.949v1.961h-1.949Z" transform="translate(-56.114 -28.15)"/>
    <path id="Path_351" data-name="Path 351" d="M125.126,19.067H123.18V17.11h1.946Z" transform="translate(-405.276 -28.238)"/>
    <path id="Path_352" data-name="Path 352" d="M-306.916,17.053V19h-1.96V17.053Z" transform="translate(-28.226 -28.188)"/>
  </g>
</svg>
