<svg id="Group_1578" data-name="Group 1578" xmlns="http://www.w3.org/2000/svg" xmlns:xlink="http://www.w3.org/1999/xlink" width="340.21" height="376.756" viewBox="0 0 340.21 376.756">
  <defs>
    <clipPath id="clip-path">
      <path id="Path_1477" data-name="Path 1477" d="M325.606,157.472s-6.308,94.02,35.337,120.523c0,0,37.23-20.193,64.362-63.731l12.62-5.048s13.883,1.262-3.155-6.941l-9.465,5.679,3.155-9.465s-9.465,6.941-7.572,13.251c0,0-5.679,6.941-19.56,15.143s-32.182,17.038-37.23,32.182c0,0-3.786-88.972-12.62-103.485S329.393,148.638,325.606,157.472Z" transform="translate(-325.265 -147.43)" fill="#648fb1"/>
    </clipPath>
    <clipPath id="clip-path-2">
      <path id="Path_1482" data-name="Path 1482" d="M403.089,160.282s-3.155,4.417,5.048,10.727,25.872,46.064-65.624,85.817c0,0-10.727,36.6-59.314,53.637a21.817,21.817,0,0,1-9.15,9.148l5.048-6.939-9.465,1.26-5.048-4.415c-.948-.948.321-3.877,1.662-3.874a5.176,5.176,0,0,1,2.456.61,12.553,12.553,0,0,0,7.684,1.216l5.551-.792,97.8-122.416-1.262-32.182Z" transform="translate(-264.254 -152.079)" fill="#648fb1"/>
    </clipPath>
    <clipPath id="clip-path-3">
      <path id="Path_1485" data-name="Path 1485" d="M380.075,119.68s-3.278,8.545-10.727,5.679c-4.1-1.578-10.636-3.534-24.294,9.15-8.834,8.2-16.72,29.973-21.768,32.5s-1.893,13.25,5.048,14.512,15.143-3.155,19.56,2.524,13.251,3.786,13.251,3.786,8.2.631,10.1-6.31.631-22.715,8.834-29.656c0,0,1.262-10.1,10.727-14.513,0,0-11.358-3.155-5.048-12.62Z" transform="translate(-320.807 -119.68)" fill="#e7b97b"/>
    </clipPath>
  </defs>
  <path id="Path_1472" data-name="Path 1472" d="M373.016,204.06a22.2,22.2,0,0,0,2.531-2.21,9.729,9.729,0,0,0,1.781-2.419c.014.072.03.145.044.219l.047-.393c-.026.058-.063.114-.091.174Q375.322,188.98,373,178.576c-1.525-7.01-3.12-14.005-4.908-20.948-1.741-6.953-3.634-13.874-5.951-20.643a69.659,69.659,0,0,0-4.095-9.882,23.929,23.929,0,0,0-1.353-2.289,10.38,10.38,0,0,0-1.686-2.016,3.5,3.5,0,0,0-2.275-1.043,2.817,2.817,0,0,0-1.8.784l-.037-.216a2.983,2.983,0,0,1,1.825-.855,3.836,3.836,0,0,1,2.561,1.01,10.906,10.906,0,0,1,1.865,2.014,24.42,24.42,0,0,1,1.5,2.275,70.053,70.053,0,0,1,4.489,9.858c2.538,6.754,4.556,13.674,6.44,20.619q2.729,10.443,5,20.992c1.478,7.039,2.873,14.088,4.116,21.178l.039.214-.086.179a10.653,10.653,0,0,1-2.2,2.945,23.275,23.275,0,0,1-2.715,2.275,45.531,45.531,0,0,1-4.58,2.911l-.261-1.117A49.443,49.443,0,0,0,373.016,204.06Z" transform="translate(-199.025 34.096)" fill="#433041"/>
  <g id="Group_1075" data-name="Group 1075" transform="translate(0 0)">
    <path id="Path_1473" data-name="Path 1473" d="M402.087,128.841S398.3,123.793,390.1,130.1s-26.5,8.834-29.025,0,8.834-25.872,20.822-21.455S405.242,118.745,402.087,128.841Z" transform="translate(-191.633 23.908)" fill="#a32c54"/>
    <g id="Group_1058" data-name="Group 1058" transform="translate(106.943 201.075)">
      <path id="Path_1474" data-name="Path 1474" d="M325.606,157.472s-6.308,94.02,35.337,120.523c0,0,37.23-20.193,64.362-63.731l12.62-5.048s13.883,1.262-3.155-6.941l-9.465,5.679,3.155-9.465s-9.465,6.941-7.572,13.251c0,0-5.679,6.941-19.56,15.143s-32.182,17.038-37.23,32.182c0,0-3.786-88.972-12.62-103.485S329.393,148.638,325.606,157.472Z" transform="translate(-325.265 -147.43)" fill="#648fb1"/>
      <g id="Group_1057" data-name="Group 1057" clip-path="url(#clip-path)">
        <path id="Path_1475" data-name="Path 1475" d="M376.549,241.533c-1.262,0-31.551-6.941-17.669-32.811s96.544-61.84,80.138-30.289S376.549,241.533,376.549,241.533Z" transform="translate(-302.694 -133.37)" fill="#674863"/>
        <path id="Path_1476" data-name="Path 1476" d="M371.861,196.77s-22.086,35.335-38.492,35.335-10.1-51.111-10.1-51.111l28.4-15.775Z" transform="translate(-327.664 -134.038)" fill="#674863" opacity="0.19" style="mix-blend-mode: multiply;isolation: isolate"/>
      </g>
    </g>
    <path id="Path_1478" data-name="Path 1478" d="M361.638,147.465l8.2-.631,38.491-8.2s25.241-18.3,32.813-31.551l2.554,3.429s-15.805,30.647-30.95,36.957c0,0-32.18,15.144-54.9,13.882S361.638,147.465,361.638,147.465Z" transform="translate(-200.717 23.268)" fill="#eec0c5"/>
    <path id="Path_1479" data-name="Path 1479" d="M399.867,86.691l-4.542-2.27s-45.1,21.42-53.305,69.375h11.358S356.958,113.825,399.867,86.691Z" transform="translate(-205.709 6.21)" fill="#eec0c5"/>
    <g id="Group_1060" data-name="Group 1060" transform="translate(0 209.224)">
      <path id="Path_1480" data-name="Path 1480" d="M403.089,160.282s-3.155,4.417,5.048,10.727,25.872,46.064-65.624,85.817c0,0-10.727,36.6-59.314,53.637a21.817,21.817,0,0,1-9.15,9.148l5.048-6.939-9.465,1.26-5.048-4.415c-.948-.948.321-3.877,1.662-3.874a5.176,5.176,0,0,1,2.456.61,12.553,12.553,0,0,0,7.684,1.216l5.551-.792,97.8-122.416-1.262-32.182Z" transform="translate(-264.254 -152.079)" fill="#648fb1"/>
      <g id="Group_1059" data-name="Group 1059" clip-path="url(#clip-path-2)">
        <path id="Path_1481" data-name="Path 1481" d="M350.792,232.507c.556-1.3-26.5,0-25.872-19.562s-94.651,27.134-71.935,50.482S312.931,320.848,350.792,232.507Z" transform="translate(-275.373 -109.776)" fill="#674863"/>
      </g>
    </g>
    <g id="Group_1062" data-name="Group 1062" transform="translate(99.128 152.434)">
      <path id="Path_1483" data-name="Path 1483" d="M380.075,119.68s-3.278,8.545-10.727,5.679c-4.1-1.578-10.636-3.534-24.294,9.15-8.834,8.2-16.72,29.973-21.768,32.5s-1.893,13.25,5.048,14.512,15.143-3.155,19.56,2.524,13.251,3.786,13.251,3.786,8.2.631,10.1-6.31.631-22.715,8.834-29.656c0,0,1.262-10.1,10.727-14.513,0,0-11.358-3.155-5.048-12.62Z" transform="translate(-320.807 -119.68)" fill="#e7b97b"/>
      <g id="Group_1061" data-name="Group 1061" clip-path="url(#clip-path-3)">
        <path id="Path_1484" data-name="Path 1484" d="M370.194,135.822s-13.882,18.931-23.979,8.834S358.2,125.725,358.2,125.725l9.465-9.465,8.2,3.786S379.028,133.3,370.194,135.822Z" transform="translate(-303.669 -122.255)" fill="#eec0c5"/>
      </g>
    </g>
    <path id="Path_1486" data-name="Path 1486" d="M383.493,119.341s-10.1,18.3-21.455,18.931-10.1-22.086,0-31.551S385.384,104.828,383.493,119.341Z" transform="translate(-196.701 19.841)" fill="#eec0c5"/>
    <path id="Path_1487" data-name="Path 1487" d="M366.235,108.935c.622-.1,8.834,17.038,20.191,15.144s19.562,8.834,16.407,15.144c0,0,20.952-4.138,18.931-22.717-2.352-21.614-16.282-21.027-28.4-13.25-6.983,4.482-41.015-18.931-36.6,13.25A11.8,11.8,0,0,1,366.235,108.935Z" transform="translate(-194.902 16.68)" fill="#b33a5d"/>
    <path id="Path_1488" data-name="Path 1488" d="M354.136,109.9c-.344,1.886.487,3.618,1.86,3.869s2.761-1.074,3.106-2.961-.487-3.616-1.858-3.867S354.482,108.021,354.136,109.9Z" transform="translate(-196.646 23.144)" fill="#eec0c5"/>
    <path id="Path_1489" data-name="Path 1489" d="M368.062,116.792c-1.72.85-2.612,2.55-1.993,3.8s2.51,1.574,4.23.726,2.61-2.55,1.993-3.8S369.78,115.944,368.062,116.792Z" transform="translate(-187.752 30.224)" fill="#eec0c5"/>
    <path id="Path_1490" data-name="Path 1490" d="M361.673,102.578a21.988,21.988,0,0,0,.284,7.013,19.038,19.038,0,0,0,2.563,6.606,17.734,17.734,0,0,0,2.277,2.743c.21.209.44.4.659.6a6.759,6.759,0,0,0,.684.561c.238.177.461.368.7.54l.733.493c.479.34,1.006.6,1.507.9.529.251,1.041.545,1.59.754a17.563,17.563,0,0,0,1.644.631,15.658,15.658,0,0,0,1.695.5,20.564,20.564,0,0,0,3.488.585c1.176.112,2.319.163,3.481.224l6.934.352a57.041,57.041,0,0,1,6.831.524,6.075,6.075,0,0,1,2.971,1.253,24.025,24.025,0,0,1,2.258,2.578l.105-.07c-.28-.512-.57-1.013-.873-1.514-.147-.252-.319-.5-.479-.747s-.37-.475-.568-.706a6.586,6.586,0,0,0-3.19-1.762,38.568,38.568,0,0,0-6.987-.9c-2.324-.137-4.643-.16-6.964-.195a51.808,51.808,0,0,1-6.871-.3,14.538,14.538,0,0,1-6.343-2.447,15.12,15.12,0,0,1-4.382-5.138,31.394,31.394,0,0,1-3.62-13.067Z" transform="translate(-191.035 19.879)" fill="#b33a5d"/>
    <g id="Group_1065" data-name="Group 1065" transform="translate(240.052 57.236)">
      <g id="Group_1063" data-name="Group 1063" transform="translate(0 49.175)">
        <path id="Path_1491" data-name="Path 1491" d="M420.768,93.593a.357.357,0,0,0-.508-.112,80.022,80.022,0,0,0-7.73,4.766c-5.681,3.988-9.272,7.739-10.673,11.148a6.769,6.769,0,0,0,.245,6.291,9.285,9.285,0,0,0,6.992,4.769c6.463.883,15.078-3.748,22.715-8.475a.373.373,0,0,0,.17-.5h0a.37.37,0,0,0-.517-.067c-7.5,4.638-15.926,9.183-22.119,8.336a8.6,8.6,0,0,1-6.543-4.487,6.183,6.183,0,0,1-.223-5.737c2.925-7.12,15.69-14.226,17.977-15.455a.39.39,0,0,0,.214-.482Z" transform="translate(-401.205 -93.423)" fill="#2f2f2f"/>
      </g>
      <path id="Path_1492" data-name="Path 1492" d="M451.958,93.386c.77.23,5.467,5.839,5.467,5.839l5.728-.394-2.643-8.152Z" transform="translate(-362.997 -46.315)" fill="#b33a5d"/>
      <path id="Path_1493" data-name="Path 1493" d="M421.564,131.4l-2,3.787L487.54,98.83l-4.672-2.621,2.028-5.531Z" transform="translate(-387.382 -46.315)" fill="#412354"/>
      <path id="Path_1494" data-name="Path 1494" d="M402.677,108.416l29.6,45.822,65.33-44.507L469.374,65.369Z" transform="translate(-400.097 -65.369)" fill="#b33a5d"/>
      <path id="Path_1495" data-name="Path 1495" d="M413.8,93.582c-.137-.421-.748-.554-1.369-.3s-1.01.808-.873,1.23.748.554,1.369.3S413.936,94,413.8,93.582Z" transform="translate(-393.432 -44.452)" fill="#f1f1f1"/>
      <path id="Path_1496" data-name="Path 1496" d="M420.314,103.527c-.205-.387-.848-.436-1.437-.107s-.9.911-.7,1.3.85.436,1.439.107S420.519,103.916,420.314,103.527Z" transform="translate(-388.472 -36.887)" fill="#f1f1f1"/>
      <g id="Group_1064" data-name="Group 1064" transform="translate(0 49.175)">
        <path id="Path_1497" data-name="Path 1497" d="M420.768,93.593a.357.357,0,0,0-.508-.112,80.022,80.022,0,0,0-7.73,4.766c-5.681,3.988-9.272,7.739-10.673,11.148a6.769,6.769,0,0,0,.245,6.291,9.285,9.285,0,0,0,6.992,4.769c6.463.883,15.078-3.748,22.715-8.475a.373.373,0,0,0,.17-.5h0a.37.37,0,0,0-.517-.067c-7.5,4.638-15.926,9.183-22.119,8.336a8.6,8.6,0,0,1-6.543-4.487,6.183,6.183,0,0,1-.223-5.737c2.925-7.12,15.69-14.226,17.977-15.455a.39.39,0,0,0,.214-.482Z" transform="translate(-401.205 -93.423)" fill="#2f2f2f"/>
      </g>
    </g>
    <g id="Group_1068" data-name="Group 1068" transform="translate(241.497 73.014)">
      <g id="Group_1066" data-name="Group 1066" transform="translate(0 36.849)">
        <path id="Path_1498" data-name="Path 1498" d="M421.552,95.656a.353.353,0,0,0-.442-.247,56.681,56.681,0,0,0-7.422,2.813c-5.506,2.559-9.111,5.429-10.72,8.529a7.791,7.791,0,0,0-.433,6.47,11.084,11.084,0,0,0,5.77,6.7c5.7,2.6,13.9.165,21.234-2.631a.358.358,0,0,0,.205-.461h0a.353.353,0,0,0-.458-.205c-7.2,2.743-15.223,5.146-20.685,2.649a10.273,10.273,0,0,1-5.4-6.294,7.115,7.115,0,0,1,.394-5.9c3.36-6.475,15.535-10.342,17.712-10.987a.355.355,0,0,0,.24-.436Z" transform="translate(-402.03 -95.393)" fill="#2f2f2f"/>
      </g>
      <path id="Path_1499" data-name="Path 1499" d="M448.78,104.888c.666.436,4.294,7.386,4.294,7.386l5.174,1.11-1.523-9Z" transform="translate(-366.834 -51.774)" fill="#75b1b9"/>
      <path id="Path_1500" data-name="Path 1500" d="M419.464,129.126l-2.183,3.328,64.681-19.07-3.915-3.9,2.391-5.1Z" transform="translate(-390.548 -51.773)" fill="#b33a5d"/>
      <path id="Path_1501" data-name="Path 1501" d="M404.858,100.591l21.776,54.461,63.157-28.067-20.7-52.614Z" transform="translate(-399.9 -74.371)" fill="#75b1b9"/>
      <path id="Path_1502" data-name="Path 1502" d="M414.5,95.834a1.1,1.1,0,1,0-.911,1.02A.979.979,0,0,0,414.5,95.834Z" transform="translate(-394.234 -58.727)" fill="#f1f1f1"/>
      <path id="Path_1503" data-name="Path 1503" d="M419.31,107.675a1.1,1.1,0,1,0-.757,1.138A.979.979,0,0,0,419.31,107.675Z" transform="translate(-390.577 -49.714)" fill="#f1f1f1"/>
      <g id="Group_1067" data-name="Group 1067" transform="translate(0 36.849)">
        <path id="Path_1504" data-name="Path 1504" d="M421.552,95.656a.353.353,0,0,0-.442-.247,56.681,56.681,0,0,0-7.422,2.813c-5.506,2.559-9.111,5.429-10.72,8.529a7.791,7.791,0,0,0-.433,6.47,11.084,11.084,0,0,0,5.77,6.7c5.7,2.6,13.9.165,21.234-2.631a.358.358,0,0,0,.205-.461h0a.353.353,0,0,0-.458-.205c-7.2,2.743-15.223,5.146-20.685,2.649a10.273,10.273,0,0,1-5.4-6.294,7.115,7.115,0,0,1,.394-5.9c3.36-6.475,15.535-10.342,17.712-10.987a.355.355,0,0,0,.24-.436Z" transform="translate(-402.03 -95.393)" fill="#2f2f2f"/>
      </g>
    </g>
    <g id="Group_1071" data-name="Group 1071" transform="translate(182.238)">
      <g id="Group_1069" data-name="Group 1069" transform="translate(5.17 62.492)">
        <path id="Path_1505" data-name="Path 1505" d="M384.105,68.456a.358.358,0,0,0-.517.054,80.066,80.066,0,0,0-5.814,6.976c-4.121,5.585-6.335,10.282-6.58,13.96a6.775,6.775,0,0,0,2.23,5.888,9.287,9.287,0,0,0,8.145,2.3c6.408-1.215,13.106-8.343,18.846-15.251a.377.377,0,0,0,.005-.526h0a.376.376,0,0,0-.514.1c-5.632,6.778-12.182,13.767-18.324,14.932a8.6,8.6,0,0,1-7.63-2.177,6.187,6.187,0,0,1-2.033-5.369c.512-7.681,10.357-18.473,12.137-20.364a.39.39,0,0,0,.049-.526Z" transform="translate(-371.171 -68.368)" fill="#2f2f2f"/>
      </g>
      <path id="Path_1506" data-name="Path 1506" d="M415.68,56.883c.8-.028,7.038,3.8,7.038,3.8l5.308-2.195-5.1-6.89Z" transform="translate(-332.494 -18.502)" fill="#648fb1"/>
      <path id="Path_1507" data-name="Path 1507" d="M393.232,110.325l-.692,4.226,52.905-56.065-5.263-1,.166-5.889Z" transform="translate(-349.914 -18.502)" fill="#4e758e"/>
      <path id="Path_1508" data-name="Path 1508" d="M368.222,94.721l42.626,34.044L458.656,65.81,417.79,32.716Z" transform="translate(-368.222 -32.716)" fill="#648fb1"/>
      <path id="Path_1509" data-name="Path 1509" d="M379.783,68.255c-.263-.358-.887-.287-1.392.153s-.7,1.087-.438,1.443.887.287,1.392-.152S380.046,68.611,379.783,68.255Z" transform="translate(-360.984 -6.133)" fill="#f1f1f1"/>
      <path id="Path_1510" data-name="Path 1510" d="M389.111,75.615c-.317-.3-.943-.144-1.4.356s-.564,1.148-.247,1.451.945.144,1.4-.354S389.428,75.918,389.111,75.615Z" transform="translate(-353.87 -0.535)" fill="#f1f1f1"/>
      <g id="Group_1070" data-name="Group 1070" transform="translate(5.17 62.492)">
        <path id="Path_1511" data-name="Path 1511" d="M384.105,68.456a.358.358,0,0,0-.517.054,80.066,80.066,0,0,0-5.814,6.976c-4.121,5.585-6.335,10.282-6.58,13.96a6.775,6.775,0,0,0,2.23,5.888,9.287,9.287,0,0,0,8.145,2.3c6.408-1.215,13.106-8.343,18.846-15.251a.377.377,0,0,0,.005-.526h0a.376.376,0,0,0-.514.1c-5.632,6.778-12.182,13.767-18.324,14.932a8.6,8.6,0,0,1-7.63-2.177,6.187,6.187,0,0,1-2.033-5.369c.512-7.681,10.357-18.473,12.137-20.364a.39.39,0,0,0,.049-.526Z" transform="translate(-371.171 -68.368)" fill="#2f2f2f"/>
      </g>
    </g>
    <g id="Group_1074" data-name="Group 1074" transform="translate(185.53 14.53)">
      <g id="Group_1072" data-name="Group 1072" transform="translate(3.065 50.808)">
        <path id="Path_1512" data-name="Path 1512" d="M386.054,70.15a.353.353,0,0,0-.5-.095,56.666,56.666,0,0,0-6.144,5.025c-4.407,4.175-6.915,8.042-7.457,11.493a7.793,7.793,0,0,0,1.646,6.272,11.088,11.088,0,0,0,7.6,4.521c6.231.661,13.232-4.259,19.3-9.241a.356.356,0,0,0,.049-.5h0a.356.356,0,0,0-.5-.049c-5.951,4.887-12.8,9.716-18.771,9.083A10.275,10.275,0,0,1,374.16,92.4a7.1,7.1,0,0,1-1.5-5.719c1.129-7.208,11.444-14.741,13.3-16.045a.355.355,0,0,0,.089-.489Z" transform="translate(-371.848 -69.991)" fill="#2f2f2f"/>
      </g>
      <path id="Path_1513" data-name="Path 1513" d="M416.621,68.714c.771.2,6.419,5.641,6.419,5.641l5.258-.592L424,65.715Z" transform="translate(-335.077 -22.403)" fill="#ebba5a"/>
      <path id="Path_1514" data-name="Path 1514" d="M392.763,108.542l-1.013,3.849,55.274-38.629-4.951-2.455.648-5.591Z" transform="translate(-353.801 -22.403)" fill="#412354"/>
      <path id="Path_1515" data-name="Path 1515" d="M370.1,86.271l37.948,44.723,50.971-46.676L422.675,41.005Z" transform="translate(-370.1 -41.005)" fill="#e8b87b"/>
      <path id="Path_1516" data-name="Path 1516" d="M381.2,70.118a1.095,1.095,0,1,0-.54,1.257A.981.981,0,0,0,381.2,70.118Z" transform="translate(-363.224 -19.391)" fill="#f1f1f1"/>
      <path id="Path_1517" data-name="Path 1517" d="M389.511,79.821a1.094,1.094,0,1,0-.356,1.322A.978.978,0,0,0,389.511,79.821Z" transform="translate(-356.885 -12.012)" fill="#f1f1f1"/>
      <g id="Group_1073" data-name="Group 1073" transform="translate(3.065 50.808)">
        <path id="Path_1518" data-name="Path 1518" d="M386.054,70.15a.353.353,0,0,0-.5-.095,56.666,56.666,0,0,0-6.144,5.025c-4.407,4.175-6.915,8.042-7.457,11.493a7.793,7.793,0,0,0,1.646,6.272,11.088,11.088,0,0,0,7.6,4.521c6.231.661,13.232-4.259,19.3-9.241a.356.356,0,0,0,.049-.5h0a.356.356,0,0,0-.5-.049c-5.951,4.887-12.8,9.716-18.771,9.083A10.275,10.275,0,0,1,374.16,92.4a7.1,7.1,0,0,1-1.5-5.719c1.129-7.208,11.444-14.741,13.3-16.045a.355.355,0,0,0,.089-.489Z" transform="translate(-371.848 -69.991)" fill="#2f2f2f"/>
      </g>
    </g>
    <path id="Path_1519" data-name="Path 1519" d="M409.416,110.26s-4.542-6.812-7.949-3.406,1.136,7.947,2.272,6.812S408.28,110.26,409.416,110.26Z" transform="translate(-161.893 22.381)" fill="#eec0c5"/>
    <path id="Path_1520" data-name="Path 1520" d="M380.913,86.942s-4.542-6.813-7.947-3.408,1.134,7.947,2.27,6.813S379.777,86.942,380.913,86.942Z" transform="translate(-183.35 4.825)" fill="#eec0c5"/>
  </g>
  <path id="Path_1521" data-name="Path 1521" d="M376.419,165.345s4.982,12.261,14.177,18.392-6.9,32.955-19.924,27.59-17.626-30.655-17.626-30.655S369.138,176.074,376.419,165.345Z" transform="translate(-197.409 67.132)" fill="#433041"/>
  <path id="Path_1522" data-name="Path 1522" d="M353.263,179.837s.768-1.534,7.665-5.365,14.768-9.725,14.664-8.31,4.494,15.208,1.428,22.1c0,0-3.066-4.6-11.5-3.066A11.708,11.708,0,0,1,353.263,179.837Z" transform="translate(-197.245 67.585)" fill="#4b374b"/>
  <path id="Path_1523" data-name="Path 1523" d="M365.506,179.286a2.337,2.337,0,1,0,2.3-1.918A2.134,2.134,0,0,0,365.506,179.286Z" transform="translate(-188.028 76.183)" fill="#8a6e8b"/>
  <path id="Path_1524" data-name="Path 1524" d="M353.2,174.188c.081-.033.161-.07.242-.105.044.074.082.149.128.223Z" transform="translate(-197.293 73.71)" fill="#433041"/>
  <path id="Path_1525" data-name="Path 1525" d="M366.021,166.238c-.014-.074-.03-.147-.044-.219.028-.06.065-.116.091-.174Z" transform="translate(-187.674 67.508)" fill="#433041"/>
  <path id="Path_1526" data-name="Path 1526" d="M344.123,142.969a37.741,37.741,0,0,1,3.26-11.872l.734-1.367.373-.678.442-.638.887-1.271,1.013-1.173a15.85,15.85,0,0,1,2.3-2.065,9.664,9.664,0,0,1,2.7-1.446,5.581,5.581,0,0,1,.494-.507l.037.216a5.957,5.957,0,0,0-.449.421,9.74,9.74,0,0,0-2.571,1.592,15.338,15.338,0,0,0-2.135,2.119l-.929,1.185-.8,1.276-.4.638-.329.677-.668,1.348a37.08,37.08,0,0,0-2.817,11.676c-.082,1.006-.233,2-.261,3.011l-.067,3.027c-.009.5-.032,1.008-.026,1.513l.07,1.514.14,3.029q.489,6.045,1.393,12.073a192.553,192.553,0,0,0,4.908,23.854c2.249,7.7,5.027,15.365,9.176,22.207-.081.035-.161.072-.242.105l.37.117c-.046-.074-.084-.149-.128-.223a106.98,106.98,0,0,0,12.128-5.9c.54-.312,1.064-.649,1.6-.975l.261,1.117q-.678.381-1.362.75a113.637,113.637,0,0,1-12.641,5.695l-.244.093-.126-.21a76.623,76.623,0,0,1-5.3-11.057c-1.513-3.788-2.917-7.627-4.074-11.541-.643-1.937-1.155-3.914-1.741-5.87-.5-1.979-1.043-3.949-1.5-5.939-.929-3.977-1.749-7.984-2.373-12.021A88.229,88.229,0,0,1,344.123,142.969Z" transform="translate(-204.451 34.465)" fill="#433041"/>
</svg>
