<svg xmlns="http://www.w3.org/2000/svg" width="117.401" height="104.768" viewBox="0 0 117.401 104.768">
  <g id="Group_144" data-name="Group 144" transform="translate(-95.5 -112.5)">
    <path id="Path_328" data-name="Path 328" d="M164.25,293.7h17.887v-31.13l-17.887,9.615Zm20.173,2.286H162V270.846L184.422,258.8Z" transform="translate(-42.054 -92.9)" fill="#78e08f" stroke="#78e08f" stroke-width="1"/>
    <path id="Path_329" data-name="Path 329" d="M237.35,290.008h17.887V262.361l-6.676,4.064-11.211-8.78v32.364Zm20.173,2.286H235.1V253l13.642,10.667,8.78-5.333Z" transform="translate(-88.631 -89.205)" fill="#78e08f" stroke="#78e08f" stroke-width="1"/>
    <path id="Path_330" data-name="Path 330" d="M310.386,270.956h17.887V227.164l-17.887,10.921Zm20.137,2.286H308.1V236.778L330.523,223.1Z" transform="translate(-135.145 -70.153)" fill="#78e08f" stroke="#78e08f" stroke-width="1"/>
    <path id="Path_331" data-name="Path 331" d="M133.948,210.669l4.027,7.51,30.84-16.581,13.642,10.7,35.52-21.661,3.991,5.261,8.744-20.681-22.277,2.794,4.39,5.805-29.752,18.141-13.388-10.486Zm3.12,10.558-6.168-11.5,39.04-20.971,13.316,10.413,26.268-16-5.261-6.93,30.078-3.737-11.792,27.9-5.116-6.785-35.085,21.407-13.715-10.74Z" transform="translate(-22.237 -37.912)" fill="#78e08f" stroke="#78e08f" stroke-width="1"/>
    <path id="Path_332" data-name="Path 332" d="M98.25,214.482H208v-5.334H103.619V115.286H98.286v99.2Zm112.04,2.286H96V113h9.869v93.862H210.289Z" fill="#78e08f" stroke="#78e08f" stroke-width="1"/>
  </g>
</svg>
