<svg id="Group_826" data-name="Group 826" xmlns="http://www.w3.org/2000/svg" width="25.962" height="17.284" viewBox="0 0 25.962 17.284">
  <path id="Path_1070" data-name="Path 1070" d="M561.533,493.9a1.978,1.978,0,0,0-1.978,1.978v2.592h3.956v-2.592A1.978,1.978,0,0,0,561.533,493.9Z" transform="translate(-540.162 -481.488)" fill="#388e3c"/>
  <circle id="Ellipse_3" data-name="Ellipse 3" cx="1.382" cy="1.382" r="1.382" transform="translate(22.395 13.974)" fill="#2e7d32"/>
  <circle id="Ellipse_4" data-name="Ellipse 4" cx="0.919" cy="0.919" r="0.919" transform="translate(0.36 15.332) rotate(-23.011)" fill="#1b5e20"/>
  <circle id="Ellipse_5" data-name="Ellipse 5" cx="1.899" cy="1.899" r="1.899" transform="matrix(0.226, -0.974, 0.974, 0.226, 1.324, 16.258)" fill="#2e7d32"/>
  <rect id="Rectangle_1101" data-name="Rectangle 1101" width="25.962" height="1.056" transform="translate(0 16.229)" fill="#434343"/>
  <g id="Group_824" data-name="Group 824" transform="translate(3.895 4.073)">
    <rect id="Rectangle_1102" data-name="Rectangle 1102" width="17.261" height="10.834" transform="translate(0.456 1.321)" fill="#ff7043"/>
    <path id="Path_1071" data-name="Path 1071" d="M576.646,572.46H575v.655h1.835v-.466A.189.189,0,0,0,576.646,572.46Z" transform="translate(-558.881 -560.96)" fill="#f5f5f5"/>
    <g id="Group_809" data-name="Group 809" transform="translate(11.27 4.319)">
      <rect id="Rectangle_1103" data-name="Rectangle 1103" width="4.849" height="7.836" fill="#3e2723"/>
      <rect id="Rectangle_1104" data-name="Rectangle 1104" width="4.273" height="7.26" transform="translate(0.288 0.288)" fill="#80cbc4"/>
      <g id="Group_807" data-name="Group 807" transform="translate(0.288 0.288)">
        <path id="Path_1072" data-name="Path 1072" d="M514.292,402.756v.445l-2.242-2.242h.445Z" transform="translate(-510.018 -400.96)" fill="#b2dfdb"/>
        <path id="Path_1073" data-name="Path 1073" d="M465.773,452.5v.445l-4.273-4.273v-.445Z" transform="translate(-461.5 -446.33)" fill="#b2dfdb"/>
        <path id="Path_1074" data-name="Path 1074" d="M487.369,403.438v.891L484,400.96h.891Z" transform="translate(-483.096 -400.96)" fill="#b2dfdb"/>
      </g>
      <rect id="Rectangle_1105" data-name="Rectangle 1105" width="4.273" height="0.154" transform="translate(0.288 0.288)" fill="#212121" opacity="0.2" style="mix-blend-mode: multiply;isolation: isolate"/>
      <path id="Path_1075" data-name="Path 1075" d="M454.333,545.323v1.746h1.746Z" transform="translate(-454.333 -539.233)" fill="#212121" opacity="0.4" style="mix-blend-mode: multiply;isolation: isolate"/>
      <g id="Group_808" data-name="Group 808" transform="translate(0.621 3.225)">
        <path id="Path_1076" data-name="Path 1076" d="M470.16,474.227a.184.184,0,1,1-.184-.184A.184.184,0,0,1,470.16,474.227Z" transform="translate(-469.792 -474.043)" fill="#e0e0e0"/>
        <path id="Path_1077" data-name="Path 1077" d="M470.16,507.06a.184.184,0,1,1-.184-.184A.184.184,0,0,1,470.16,507.06Z" transform="translate(-469.792 -505.556)" fill="#e0e0e0"/>
        <path id="Path_1078" data-name="Path 1078" d="M471.855,475.043a.105.105,0,0,0-.105.105v1.4a.106.106,0,0,0,.211,0v-1.4A.105.105,0,0,0,471.855,475.043Z" transform="translate(-471.671 -475.003)" fill="#f5f5f5"/>
      </g>
    </g>
    <path id="Rectangle_1106" data-name="Rectangle 1106" d="M.655,0h10.4a0,0,0,0,1,0,0V.655a0,0,0,0,1,0,0H0a0,0,0,0,1,0,0v0A.655.655,0,0,1,.655,0Z" transform="translate(0.218 11.5)" fill="#f5f5f5"/>
    <rect id="Rectangle_1107" data-name="Rectangle 1107" width="17.304" height="0.318" transform="translate(0.434 0.635)" fill="#bdbdbd"/>
    <rect id="Rectangle_1108" data-name="Rectangle 1108" width="17.304" height="0.318" transform="translate(0.434)" fill="#bdbdbd"/>
    <rect id="Rectangle_1109" data-name="Rectangle 1109" width="16.879" height="0.318" transform="translate(0.646 0.318)" fill="#ff7043"/>
    <rect id="Rectangle_1110" data-name="Rectangle 1110" width="16.879" height="0.159" transform="translate(0.646 0.318)" fill="#212121" opacity="0.4" style="mix-blend-mode: multiply;isolation: isolate"/>
    <g id="Group_810" data-name="Group 810" transform="translate(14.599 3.049)">
      <rect id="Rectangle_1111" data-name="Rectangle 1111" width="0.968" height="0.377" transform="translate(0 0.627)" fill="#ff490f"/>
      <rect id="Rectangle_1112" data-name="Rectangle 1112" width="0.968" height="0.377" transform="translate(1.223 0.627)" fill="#ff490f"/>
      <rect id="Rectangle_1113" data-name="Rectangle 1113" width="0.968" height="0.377" transform="translate(0.615)" fill="#ff490f"/>
    </g>
    <g id="Group_811" data-name="Group 811" transform="translate(16.306 8.332)">
      <rect id="Rectangle_1114" data-name="Rectangle 1114" width="0.968" height="0.377" transform="translate(0 0.627)" fill="#ff490f"/>
      <rect id="Rectangle_1115" data-name="Rectangle 1115" width="0.968" height="0.377" transform="translate(0.615)" fill="#ff490f"/>
    </g>
    <g id="Group_812" data-name="Group 812" transform="translate(2.054 3.049)">
      <rect id="Rectangle_1116" data-name="Rectangle 1116" width="0.968" height="0.377" transform="translate(0 0.627)" fill="#ff490f"/>
      <rect id="Rectangle_1117" data-name="Rectangle 1117" width="0.968" height="0.377" transform="translate(1.223 0.627)" fill="#ff490f"/>
      <rect id="Rectangle_1118" data-name="Rectangle 1118" width="0.968" height="0.377" transform="translate(0.615)" fill="#ff490f"/>
      <rect id="Rectangle_1119" data-name="Rectangle 1119" width="0.968" height="0.377" transform="translate(1.838)" fill="#ff490f"/>
    </g>
    <g id="Group_813" data-name="Group 813" transform="translate(3.153 10.199)">
      <rect id="Rectangle_1120" data-name="Rectangle 1120" width="0.968" height="0.377" transform="translate(2.806 1.003) rotate(180)" fill="#ff490f"/>
      <rect id="Rectangle_1121" data-name="Rectangle 1121" width="0.968" height="0.377" transform="translate(6.417 0.377) rotate(180)" fill="#ff490f"/>
      <rect id="Rectangle_1122" data-name="Rectangle 1122" width="0.968" height="0.377" transform="translate(1.584 1.003) rotate(180)" fill="#ff490f"/>
      <rect id="Rectangle_1123" data-name="Rectangle 1123" width="0.968" height="0.377" transform="translate(2.191 0.377) rotate(180)" fill="#ff490f"/>
      <rect id="Rectangle_1124" data-name="Rectangle 1124" width="0.968" height="0.377" transform="translate(0.968 0.377) rotate(180)" fill="#ff490f"/>
    </g>
    <g id="Group_814" data-name="Group 814" transform="translate(0.294 6.309)">
      <rect id="Rectangle_1125" data-name="Rectangle 1125" width="0.7" height="0.377" transform="translate(0 0.627)" fill="#ff490f"/>
      <rect id="Rectangle_1126" data-name="Rectangle 1126" width="0.7" height="0.377" transform="translate(0.445)" fill="#ff490f"/>
    </g>
    <g id="Group_815" data-name="Group 815" transform="translate(16.047 5.426)">
      <path id="Path_1079" data-name="Path 1079" d="M573.275,421.331a.072.072,0,0,0-.072.072v.551a.072.072,0,0,0,.145,0V421.4A.072.072,0,0,0,573.275,421.331Z" transform="translate(-573.203 -421.331)" fill="#f5f5f5"/>
      <path id="Path_1080" data-name="Path 1080" d="M573.275,543.92a.072.072,0,0,0-.072.072v.551a.072.072,0,0,0,.145,0v-.551A.072.072,0,0,0,573.275,543.92Z" transform="translate(-573.203 -538.993)" fill="#f5f5f5"/>
    </g>
    <rect id="Rectangle_1127" data-name="Rectangle 1127" width="0.484" height="0.377" transform="translate(8.384 3.676)" fill="#ff490f"/>
    <rect id="Rectangle_1128" data-name="Rectangle 1128" width="0.484" height="0.377" transform="translate(8.936 3.049)" fill="#ff490f"/>
    <rect id="Rectangle_1129" data-name="Rectangle 1129" width="0.968" height="0.377" transform="translate(7.641 3.049)" fill="#ff490f"/>
    <rect id="Rectangle_1130" data-name="Rectangle 1130" width="0.484" height="0.377" transform="translate(1.123 10.173)" fill="#ff490f"/>
    <rect id="Rectangle_1131" data-name="Rectangle 1131" width="0.968" height="0.377" transform="translate(0.3 9.546)" fill="#ff490f"/>
    <rect id="Rectangle_1132" data-name="Rectangle 1132" width="0.699" height="0.377" transform="translate(16.461 6.482)" fill="#ff490f"/>
    <rect id="Rectangle_1133" data-name="Rectangle 1133" width="0.489" height="0.377" transform="translate(10.031 5.302)" fill="#ff490f"/>
    <rect id="Rectangle_1134" data-name="Rectangle 1134" width="0.489" height="0.377" transform="translate(10.275 5.845)" fill="#ff490f"/>
    <g id="Group_820" data-name="Group 820" transform="translate(0 0.953)">
      <g id="Group_816" data-name="Group 816" transform="translate(2.019 0.736)">
        <path id="Path_1081" data-name="Path 1081" d="M224.156,328.967a1.01,1.01,0,0,0,1.01,1.01h0a1.01,1.01,0,0,0,1.01-1.01v-.63h-2.019Z" transform="translate(-224.156 -328.337)" fill="#e0e0e0"/>
        <path id="Path_1082" data-name="Path 1082" d="M324.638,328.967a1.01,1.01,0,0,0,1.01,1.01h0a1.01,1.01,0,0,0,1.01-1.01v-.63h-2.019Z" transform="translate(-320.6 -328.337)" fill="#e0e0e0"/>
        <path id="Path_1083" data-name="Path 1083" d="M425.121,328.967a1.009,1.009,0,0,0,1.009,1.01h0a1.01,1.01,0,0,0,1.01-1.01v-.63h-2.019Z" transform="translate(-417.044 -328.337)" fill="#e0e0e0"/>
        <path id="Path_1084" data-name="Path 1084" d="M525.6,328.337v.63a1.009,1.009,0,0,0,1.01,1.01h0a1.01,1.01,0,0,0,1.009-1.01v-.63Z" transform="translate(-513.488 -328.337)" fill="#e0e0e0"/>
      </g>
      <g id="Group_817" data-name="Group 817" transform="translate(2.019)">
        <path id="Path_1085" data-name="Path 1085" d="M224.156,310.767h2.019l.241-.736h-1.923Z" transform="translate(-224.156 -310.031)" fill="#eee"/>
        <path id="Path_1086" data-name="Path 1086" d="M324.638,310.767h2.019l.048-.736h-1.923Z" transform="translate(-320.6 -310.031)" fill="#eee"/>
        <path id="Path_1087" data-name="Path 1087" d="M423.921,310.031l.048.736h2.019l-.145-.736Z" transform="translate(-415.892 -310.031)" fill="#eee"/>
        <path id="Path_1088" data-name="Path 1088" d="M521.525,310.031H519.6l.241.736h2.019Z" transform="translate(-507.729 -310.031)" fill="#eee"/>
      </g>
      <g id="Group_818" data-name="Group 818" transform="translate(0 0.736)">
        <path id="Path_1089" data-name="Path 1089" d="M173.914,328.967a1.01,1.01,0,0,0,1.01,1.01h0a1.01,1.01,0,0,0,1.01-1.01v-.63h-2.019Z" transform="translate(-173.914 -328.337)" fill="#d32e2e"/>
        <path id="Path_1090" data-name="Path 1090" d="M274.4,328.967a1.01,1.01,0,0,0,1.01,1.01h0a1.01,1.01,0,0,0,1.01-1.01v-.63H274.4Z" transform="translate(-270.359 -328.337)" fill="#d32e2e"/>
        <path id="Path_1091" data-name="Path 1091" d="M374.879,328.967a1.01,1.01,0,0,0,2.019,0v-.63h-2.019Z" transform="translate(-366.802 -328.337)" fill="#d32e2e"/>
        <path id="Path_1092" data-name="Path 1092" d="M475.362,328.967a1.01,1.01,0,0,0,1.01,1.01h0a1.01,1.01,0,0,0,1.01-1.01v-.63h-2.019Z" transform="translate(-463.247 -328.337)" fill="#d32e2e"/>
        <path id="Path_1093" data-name="Path 1093" d="M575.844,328.337v.63a1.01,1.01,0,0,0,1.01,1.01h0a1.01,1.01,0,0,0,1.009-1.01v-.63Z" transform="translate(-559.691 -328.337)" fill="#d32e2e"/>
      </g>
      <g id="Group_819" data-name="Group 819" transform="translate(0)">
        <path id="Path_1094" data-name="Path 1094" d="M173.914,310.767h2.019l.338-.736h-1.923Z" transform="translate(-173.914 -310.031)" fill="#e53a35"/>
        <path id="Path_1095" data-name="Path 1095" d="M274.4,310.767h2.019l.145-.736h-1.923Z" transform="translate(-270.359 -310.031)" fill="#e53a35"/>
        <path id="Path_1096" data-name="Path 1096" d="M374.928,310.031l-.048.736H376.9l-.048-.736Z" transform="translate(-366.803 -310.031)" fill="#e53a35"/>
        <path id="Path_1097" data-name="Path 1097" d="M471.761,310.031l.145.736h2.019l-.241-.736Z" transform="translate(-459.791 -310.031)" fill="#e53a35"/>
        <path id="Path_1098" data-name="Path 1098" d="M569.366,310.031h-1.923l.338.736H569.8Z" transform="translate(-551.628 -310.031)" fill="#e53a35"/>
      </g>
    </g>
    <rect id="Rectangle_1135" data-name="Rectangle 1135" width="0.513" height="0.377" transform="translate(0.644 4.319)" fill="#ff490f"/>
    <g id="Group_823" data-name="Group 823" transform="translate(1.388 4.4)">
      <g id="Group_822" data-name="Group 822" transform="translate(0.428)">
        <rect id="Rectangle_1136" data-name="Rectangle 1136" width="8.215" height="4.983" fill="#3e2723"/>
        <rect id="Rectangle_1137" data-name="Rectangle 1137" width="7.639" height="4.407" transform="translate(0.288 0.288)" fill="#80cbc4"/>
        <g id="Group_821" data-name="Group 821" transform="translate(2.837 0.288)">
          <path id="Path_1099" data-name="Path 1099" d="M368.985,404.26v.682L367,402.96h.682Z" transform="translate(-363.896 -402.96)" fill="#b2dfdb"/>
          <path id="Path_1100" data-name="Path 1100" d="M356.316,405.132v.341L353.8,402.96h.341Z" transform="translate(-351.226 -402.96)" fill="#b2dfdb"/>
          <path id="Path_1101" data-name="Path 1101" d="M294.783,406.685v.682H294.1l-4.407-4.408h1.364Z" transform="translate(-289.693 -402.96)" fill="#b2dfdb"/>
        </g>
        <rect id="Rectangle_1138" data-name="Rectangle 1138" width="7.639" height="0.154" transform="translate(0.288 0.288)" fill="#212121" opacity="0.2" style="mix-blend-mode: multiply;isolation: isolate"/>
      </g>
      <rect id="Rectangle_1139" data-name="Rectangle 1139" width="9.07" height="0.938" transform="translate(0 4.983)" fill="#fafbfb"/>
      <path id="Path_1102" data-name="Path 1102" d="M221.29,506.126h-7.946a.381.381,0,0,0-.381.381v.168h8.708v-.168A.381.381,0,0,0,221.29,506.126Z" transform="translate(-212.782 -501.692)" fill="#2e7d32"/>
      <rect id="Rectangle_1140" data-name="Rectangle 1140" width="9.07" height="0.201" transform="translate(0 4.983)" fill="#eee"/>
      <path id="Path_1103" data-name="Path 1103" d="M221.67,515.126h-8.706c0,.006,0,.013,0,.019v.168h8.708v-.168C221.671,515.139,221.67,515.133,221.67,515.126Z" transform="translate(-212.782 -510.33)" fill="#1b5e20"/>
      <path id="Path_1104" data-name="Path 1104" d="M218.332,520.6v1.961h-8.047l-1.834-1.834h9.07v-.938Z" transform="translate(-208.45 -514.806)" fill="#212121" opacity="0.4" style="mix-blend-mode: multiply;isolation: isolate"/>
    </g>
  </g>
  <rect id="Rectangle_1141" data-name="Rectangle 1141" width="18.842" height="3.765" rx="1.883" transform="translate(3.56 0)" fill="#3e2723"/>
  <rect id="Rectangle_1142" data-name="Rectangle 1142" width="18.256" height="3.168" rx="1.584" transform="translate(3.853 0.299)" fill="#00897b"/>
  <path id="Path_1105" data-name="Path 1105" d="M191.133,192.719v.036H172.877v-.036a.324.324,0,0,1,.325-.325h17.606A.324.324,0,0,1,191.133,192.719Z" transform="translate(-169.024 -192.095)" fill="#212121" opacity="0.2" style="mix-blend-mode: multiply;isolation: isolate"/>
  <g id="Group_825" data-name="Group 825" transform="translate(5.582 3.765)">
    <rect id="Rectangle_1143" data-name="Rectangle 1143" width="0.301" height="0.308" fill="#212121"/>
    <rect id="Rectangle_1144" data-name="Rectangle 1144" width="0.301" height="0.308" transform="translate(14.496)" fill="#212121"/>
  </g>
</svg>
