<svg xmlns="http://www.w3.org/2000/svg" width="108.733" height="89.871" viewBox="0 0 108.733 89.871">
  <path id="Path_353" data-name="Path 353" d="M107.935,79.45a9.986,9.986,0,1,1-19.971,0,2.917,2.917,0,0,0-2.959-2.959,2.722,2.722,0,0,0-2.959,2.959,9.986,9.986,0,1,1-19.971,0,2.917,2.917,0,0,0-2.959-2.959,2.722,2.722,0,0,0-2.959,2.959,9.986,9.986,0,1,1-19.971,0,2.917,2.917,0,0,0-2.959-2.959c-1.849,0-2.219,1.479-2.219,2.959a9.986,9.986,0,1,1-19.971,0,13.137,13.137,0,0,1,.74-3.7v-.37l4.068-20.341h88.022l4.438,24.04Zm-7.027,51.408a2.528,2.528,0,0,1-2.589,2.589H95.731V99.791a2.917,2.917,0,0,0-2.959-2.959H72.431a2.917,2.917,0,0,0-2.959,2.959v33.655H21.023a2.528,2.528,0,0,1-2.589-2.589V94.983c.74,0,1.479.37,2.219.37A16.113,16.113,0,0,0,33.6,88.7a15.913,15.913,0,0,0,25.889,0,15.913,15.913,0,0,0,25.889,0A15.6,15.6,0,0,0,98.32,95.353a7.208,7.208,0,0,0,2.959-.37v35.874ZM113.483,79.08l-5.178-27.368a2.7,2.7,0,0,0-2.589-2.219H13.257a2.473,2.473,0,0,0-2.589,2.219L6.23,74.272A14.841,14.841,0,0,0,5.12,79.82a15.09,15.09,0,0,0,7.767,13.314v38.094a8.209,8.209,0,0,0,8.137,8.136H72.8a2.917,2.917,0,0,0,2.959-2.959V102.38H90.553v34.025a2.917,2.917,0,0,0,2.959,2.959h5.178a8.208,8.208,0,0,0,8.136-8.136V92.395a15.45,15.45,0,0,0,7.027-11.835A2.223,2.223,0,0,0,113.483,79.08Zm-51.038,35.5a4.273,4.273,0,0,1-4.438,4.438H33.228a4.273,4.273,0,0,1-4.438-4.438v-7.027a4.273,4.273,0,0,1,4.438-4.438H58.007a4.273,4.273,0,0,1,4.438,4.438v7.027ZM58.007,97.572H33.228a9.944,9.944,0,0,0-9.986,9.986v7.027a9.944,9.944,0,0,0,9.986,9.986H58.007a9.944,9.944,0,0,0,9.986-9.986v-7.027A9.944,9.944,0,0,0,58.007,97.572Z" transform="translate(-5.12 -49.493)" fill="#78e08f"/>
</svg>
