<svg id="Layer_2" data-name="Layer 2" xmlns="http://www.w3.org/2000/svg" width="249" height="107.6" viewBox="0 0 249 107.6">
  <g id="Layer_1" data-name="Layer 1" transform="translate(0 0)">
    <path id="Path_1" data-name="Path 1" d="M76.491,171.344a5.764,5.764,0,0,1-.477,2.335,6.428,6.428,0,0,1-1.28,1.907,6.022,6.022,0,0,1-1.853,1.307,5.71,5.71,0,0,1-4.569,0,5.978,5.978,0,0,1-1.885-1.307,6.428,6.428,0,0,1-1.28-1.907,5.764,5.764,0,0,1-.477-2.335,5.646,5.646,0,0,1,.477-2.287,6.085,6.085,0,0,1,3.166-3.16,5.71,5.71,0,0,1,4.569,0,6.1,6.1,0,0,1,3.16,3.16A5.646,5.646,0,0,1,76.491,171.344Z" transform="translate(-30.03 -77.766)" fill="#78e08f"/>
    <path id="Path_2" data-name="Path 2" d="M103.232,171.344a5.764,5.764,0,0,1-.477,2.335,6.55,6.55,0,0,1-1.28,1.907,5.978,5.978,0,0,1-1.885,1.307,5.72,5.72,0,0,1-2.33.477,5.629,5.629,0,0,1-2.287-.477,6.042,6.042,0,0,1-1.885-1.307,6.55,6.55,0,0,1-1.28-1.907,5.763,5.763,0,0,1-.477-2.335,5.645,5.645,0,0,1,.477-2.287,6.219,6.219,0,0,1,1.28-1.88,6.147,6.147,0,0,1,1.885-1.28,5.537,5.537,0,0,1,2.287-.477,5.634,5.634,0,0,1,2.33.477,6.083,6.083,0,0,1,1.885,1.28,6.219,6.219,0,0,1,1.28,1.88A5.645,5.645,0,0,1,103.232,171.344Z" transform="translate(-42.861 -77.766)" fill="#78e08f"/>
    <path id="Path_3" data-name="Path 3" d="M173.442,36.318a5.805,5.805,0,0,1-.477,2.309,6.15,6.15,0,0,1-1.28,1.907,6.06,6.06,0,0,1-1.907,1.28,5.737,5.737,0,0,1-2.314.477,5.533,5.533,0,0,1-2.282-.477,6.01,6.01,0,0,1-3.166-3.187,5.843,5.843,0,0,1,0-4.623A6.151,6.151,0,0,1,163.3,32.1a6.247,6.247,0,0,1,1.886-1.28,5.619,5.619,0,0,1,2.282-.477,5.828,5.828,0,0,1,2.314.477A5.951,5.951,0,0,1,172.992,34,5.826,5.826,0,0,1,173.442,36.318Z" transform="translate(-75.811 -14.088)" fill="#78e08f"/>
    <path id="Path_4" data-name="Path 4" d="M187.127,11.8a5.693,5.693,0,0,1-.477,2.309,6.056,6.056,0,0,1-1.28,1.907,6.123,6.123,0,0,1-1.88,1.28,5.56,5.56,0,0,1-2.287.477,5.715,5.715,0,0,1-2.309-.477,5.951,5.951,0,0,1-3.187-3.187,5.786,5.786,0,0,1-.477-2.309,5.645,5.645,0,0,1,.477-2.287,6.121,6.121,0,0,1,1.28-1.88,6.058,6.058,0,0,1,1.907-1.28A5.715,5.715,0,0,1,181.2,5.88a5.56,5.56,0,0,1,2.287.477,6.1,6.1,0,0,1,3.16,3.16A5.56,5.56,0,0,1,187.127,11.8Z" transform="translate(-82.235 -2.729)" fill="#78e08f"/>
    <path id="Path_5" data-name="Path 5" d="M200.347,36.318a5.807,5.807,0,0,1-.477,2.309,6.058,6.058,0,0,1-1.28,1.907,6.121,6.121,0,0,1-1.88,1.28,5.56,5.56,0,0,1-2.287.477,5.694,5.694,0,0,1-2.309-.477,5.952,5.952,0,0,1-3.187-3.187,5.844,5.844,0,0,1,0-4.623,5.951,5.951,0,0,1,3.187-3.187,5.785,5.785,0,0,1,2.309-.477,5.646,5.646,0,0,1,2.287.477,6.218,6.218,0,0,1,1.88,1.28A6.058,6.058,0,0,1,199.87,34,5.828,5.828,0,0,1,200.347,36.318Z" transform="translate(-88.44 -14.088)" fill="#78e08f"/>
    <path id="Path_6" data-name="Path 6" d="M252.3,4.327C251.413,1.761,250.02,0,246.983,0c-6.342.075-12.684.091-19.02,0-1.81-.032-2.143.584-2.143,2.26a13.1,13.1,0,0,0,10.916,12.662c1.746.268,2.892.766,3.45,2.469.868,2.641,9.154,27.376,9.154,27.376-.054.187,2,5.983,2.914,8.747,2.4,7.22,4.7,14.462,7.06,21.7,1,3.075,3.048,5.2,6.321,5.41,3.883.252,7.793.059,12.025.059C274.59,71.41,254.487,10.621,252.3,4.327Z" transform="translate(-106.2 0.002)" fill="#2c3e50"/>
    <path id="Path_7" data-name="Path 7" d="M386.486,38.909c-22.117-.032-85.306,0-85.991,0q-.37,0-.723.032c-.536-.386-2.244.139-2.217.412a4.339,4.339,0,0,0-2.876,3.273c-.568,2.212,8.34,28,8.833,30,.868,3.482,2.41,3.921,5.41,3.9,16.042-.107,32.085,0,48.127-.086,2.084,0,3.685.536,3.782,2.678.1,2.421-1.542,3.069-3.8,3.021-5.024-.107-10.054-.032-15.083-.032H309.274c-1.023,0-2.818-.6-2.143,1.569,1.323,4.285,2.834,8.57,4.21,12.855.418,1.312,1.328,1.505,2.5,1.505q26.755,0,53.516-.027a3.226,3.226,0,0,0,3.348-2.6c3.417-10.488,6.936-20.938,10.413-31.4.745-2.244.943-3.567-2.443-3.541-19.636.187-39.273.1-58.92.086a10.335,10.335,0,0,1-3.214-.193,3.033,3.033,0,0,1-2.389-3.166,2.436,2.436,0,0,1,2.533-2.469l63.934-.037c1.334,0,3.123.686,3.776-1.146,1.275-3.583,2.432-7.215,3.476-10.868A3.214,3.214,0,0,0,386.486,38.909Z" transform="translate(-139.03 -18.42)" fill="#78e08f"/>
    <path id="Path_8" data-name="Path 8" d="M415.977,153.79c-3.058,0-6.562,3.471-6.5,6.428.07,3.107,3.171,5.978,6.428,5.967a6.414,6.414,0,0,0,6.427-5.892A6.785,6.785,0,0,0,415.977,153.79Z" transform="translate(-192.352 -72.366)" fill="#78e08f"/>
    <path id="Path_9" data-name="Path 9" d="M333.892,153.758a6.472,6.472,0,0,0-5.892,6.4c.043,3.749,2.56,6.133,6.363,6.021a6.39,6.39,0,0,0,6.117-6.181C340.448,156.886,337.025,153.645,333.892,153.758Z" transform="translate(-153.934 -72.35)" fill="#78e08f"/>
    <path id="Union_1" data-name="Union 1" d="M3.953,57.486c-2.169-2.464-2.105-5.415-.643-8.3,2.453-4.821,4.938-9.641,7.392-14.462-.113-.284-.215-.536-.316-.82C8.2,27.613,3.075,9.364,0,.087c4.232,0,8.142-.193,12.025.048,3.273.209,5.319,2.336,6.32,5.41,1.864,5.72,3.685,11.441,5.549,17.14a3.812,3.812,0,0,0,.654.3,4.731,4.731,0,0,1,1.205-.161h18.04C41.49,15.133,38.78,5.866,36.862.076,41.094.076,45-.117,48.888.135c3.273.209,5.319,2.336,6.32,5.41,1.864,5.72,3.685,11.441,5.554,17.14.081.048.161.1.246.139h22.2c-2.325-7.692-5-16.958-6.931-22.749,4.232,0,8.142-.193,12.025.059,3.278.209,5.319,2.336,6.321,5.41,1.864,5.72,3.69,11.441,5.554,17.14a5.647,5.647,0,0,0,2.051.632,12.266,12.266,0,0,1,3.487,1.071c-2.394-7.96-5.351-18.131-7.4-24.318,4.226,0,8.142-.193,12.025.059,3.272.209,5.319,2.336,6.32,5.41,1.864,5.721,3.685,11.442,5.549,17.141a5.712,5.712,0,0,0,2.051.632,12.17,12.17,0,0,1,3.133.927C125,16.306,122.072,6.231,120.036.087c4.226,0,8.142-.193,12.025.059,3.273.209,5.313,2.335,6.32,5.41q1.27,3.9,2.529,7.8l7.611,24.773q-6.39-.033-12.78.042a6.279,6.279,0,0,1-1.43-.139,3.413,3.413,0,0,1-1.269.161c-6.342-.086-12.684-.07-19.026,0a6.139,6.139,0,0,1-1.634-.188,3.046,3.046,0,0,1-1.377.209q-6.872-.107-13.739-.064a4.4,4.4,0,0,1-.755.064H27.232c-3.889,7.456-11.1,20.419-14.816,27.81C9.422,63.04,6.524,60.41,3.953,57.486ZM11.093,35.6v-.027C11.03,35.729,11.037,35.737,11.093,35.6Z" transform="translate(0 41.572)" fill="#2c3e50"/>
  </g>
</svg>
