<svg id="Layer_2" data-name="Layer 2" xmlns="http://www.w3.org/2000/svg" width="248.744" height="107.49" viewBox="0 0 248.744 107.49">
  <g id="Layer_1" data-name="Layer 1" transform="translate(0 0)">
    <path id="Path_1" data-name="Path 1" d="M76.376,171.286A5.707,5.707,0,0,1,75.9,173.6a6.366,6.366,0,0,1-1.268,1.888,5.963,5.963,0,0,1-1.835,1.294,5.654,5.654,0,0,1-4.524,0,5.92,5.92,0,0,1-1.867-1.294,6.365,6.365,0,0,1-1.268-1.888,5.707,5.707,0,0,1-.472-2.312,5.591,5.591,0,0,1,.472-2.265,6.025,6.025,0,0,1,3.135-3.129,5.654,5.654,0,0,1,4.524,0,6.036,6.036,0,0,1,3.129,3.129A5.591,5.591,0,0,1,76.376,171.286Z" transform="translate(-30.37 -77.682)" fill="#78e08f"/>
    <path id="Path_2" data-name="Path 2" d="M103.115,171.286a5.707,5.707,0,0,1-.472,2.312,6.485,6.485,0,0,1-1.268,1.888,5.919,5.919,0,0,1-1.867,1.294,5.664,5.664,0,0,1-2.307.472,5.574,5.574,0,0,1-2.265-.472,5.982,5.982,0,0,1-1.867-1.294A6.487,6.487,0,0,1,91.8,173.6a5.707,5.707,0,0,1-.472-2.312,5.59,5.59,0,0,1,.472-2.265,6.157,6.157,0,0,1,1.268-1.862,6.087,6.087,0,0,1,1.867-1.268,5.483,5.483,0,0,1,2.265-.472,5.579,5.579,0,0,1,2.307.472,6.022,6.022,0,0,1,1.867,1.268,6.157,6.157,0,0,1,1.268,1.862A5.59,5.59,0,0,1,103.115,171.286Z" transform="translate(-42.89 -77.682)" fill="#78e08f"/>
    <path id="Path_3" data-name="Path 3" d="M173.325,36.259a5.749,5.749,0,0,1-.472,2.286,6.09,6.09,0,0,1-1.268,1.888A6,6,0,0,1,169.7,41.7a5.681,5.681,0,0,1-2.291.472,5.478,5.478,0,0,1-2.259-.472,5.951,5.951,0,0,1-3.135-3.156,5.786,5.786,0,0,1,0-4.577,6.092,6.092,0,0,1,1.268-1.888,6.185,6.185,0,0,1,1.867-1.268,5.563,5.563,0,0,1,2.259-.472,5.77,5.77,0,0,1,2.291.472,5.893,5.893,0,0,1,3.182,3.156A5.77,5.77,0,0,1,173.325,36.259Z" transform="translate(-75.861 -14.247)" fill="#78e08f"/>
    <path id="Path_4" data-name="Path 4" d="M187.01,11.746a5.637,5.637,0,0,1-.472,2.286,6,6,0,0,1-1.268,1.888,6.063,6.063,0,0,1-1.862,1.268,5.506,5.506,0,0,1-2.265.472,5.659,5.659,0,0,1-2.286-.472,5.893,5.893,0,0,1-3.156-3.156,5.729,5.729,0,0,1-.472-2.286,5.589,5.589,0,0,1,.472-2.265A6.061,6.061,0,0,1,176.97,7.62a6,6,0,0,1,1.888-1.268,5.659,5.659,0,0,1,2.286-.472,5.506,5.506,0,0,1,2.265.472,6.036,6.036,0,0,1,3.129,3.129A5.506,5.506,0,0,1,187.01,11.746Z" transform="translate(-82.29 -2.76)" fill="#78e08f"/>
    <path id="Path_5" data-name="Path 5" d="M200.23,36.259a5.749,5.749,0,0,1-.472,2.286,6,6,0,0,1-1.268,1.888,6.061,6.061,0,0,1-1.862,1.268,5.505,5.505,0,0,1-2.265.472,5.638,5.638,0,0,1-2.286-.472,5.894,5.894,0,0,1-3.156-3.156,5.787,5.787,0,0,1,0-4.577,5.893,5.893,0,0,1,3.156-3.156,5.728,5.728,0,0,1,2.286-.472,5.59,5.59,0,0,1,2.265.472,6.157,6.157,0,0,1,1.862,1.268,6,6,0,0,1,1.268,1.888A5.77,5.77,0,0,1,200.23,36.259Z" transform="translate(-88.498 -14.247)" fill="#78e08f"/>
    <path id="Path_6" data-name="Path 6" d="M252.043,4.285C251.162,1.744,249.783,0,246.776,0c-6.28.074-12.56.09-18.834,0-1.793-.032-2.122.578-2.122,2.238a12.968,12.968,0,0,0,10.809,12.538c1.729.265,2.864.758,3.416,2.445.859,2.615,9.064,27.108,9.064,27.108-.053.186,1.978,5.924,2.885,8.661,2.376,7.15,4.652,14.321,6.991,21.491.992,3.044,3.018,5.15,6.259,5.357,3.845.249,7.717.058,11.907.058C274.112,70.71,254.206,10.517,252.043,4.285Z" transform="translate(-106.048 0.002)" fill="#fff"/>
    <path id="Path_7" data-name="Path 7" d="M385.586,38.908c-21.9-.032-84.47,0-85.149,0q-.366,0-.716.032c-.53-.382-2.222.138-2.2.408a4.3,4.3,0,0,0-2.848,3.241c-.562,2.19,8.258,27.729,8.746,29.7.859,3.448,2.387,3.882,5.357,3.861,15.885-.106,31.77,0,47.655-.085,2.063,0,3.649.53,3.745,2.652.1,2.4-1.527,3.039-3.76,2.991-4.975-.106-9.955-.032-14.936-.032H309.13c-1.013,0-2.79-.594-2.122,1.554,1.31,4.243,2.806,8.486,4.169,12.729.414,1.3,1.315,1.49,2.472,1.49q26.493,0,52.991-.027a3.2,3.2,0,0,0,3.315-2.578c3.384-10.385,6.869-20.733,10.311-31.1.737-2.222.933-3.532-2.419-3.506-19.444.186-38.888.1-58.343.085a10.234,10.234,0,0,1-3.182-.191,3,3,0,0,1-2.365-3.135,2.412,2.412,0,0,1,2.509-2.445l63.307-.037c1.321,0,3.092.679,3.739-1.135,1.262-3.548,2.408-7.144,3.442-10.762A3.182,3.182,0,0,0,385.586,38.908Z" transform="translate(-138.372 -18.222)" fill="#78e08f"/>
    <path id="Path_8" data-name="Path 8" d="M415.913,153.79c-3.028,0-6.5,3.437-6.434,6.365.069,3.076,3.14,5.919,6.365,5.909a6.351,6.351,0,0,0,6.365-5.834A6.719,6.719,0,0,0,415.913,153.79Z" transform="translate(-192.296 -72.22)" fill="#78e08f"/>
    <path id="Path_9" data-name="Path 9" d="M333.834,153.758A6.409,6.409,0,0,0,328,160.09c.042,3.713,2.535,6.073,6.3,5.962a6.327,6.327,0,0,0,6.057-6.121C340.326,156.855,336.937,153.646,333.834,153.758Z" transform="translate(-154.032 -72.204)" fill="#78e08f"/>
    <path id="Union_1" data-name="Union 1" d="M3.914,56.922c-2.148-2.44-2.085-5.362-.636-8.216,2.429-4.774,4.89-9.547,7.319-14.321-.112-.281-.212-.53-.313-.811C8.12,27.342,3.045,9.272,0,.086c4.19,0,8.062-.191,11.907.048,3.241.207,5.267,2.313,6.259,5.357,1.846,5.664,3.649,11.329,5.495,16.972a3.775,3.775,0,0,0,.647.3A4.685,4.685,0,0,1,25.5,22.6H43.364C41.084,14.984,38.4,5.809,36.5.075c4.19,0,8.062-.191,11.907.058,3.241.207,5.267,2.313,6.259,5.357,1.846,5.664,3.649,11.329,5.5,16.972.08.048.159.1.244.138h21.98c-2.3-7.617-4.954-16.792-6.863-22.526,4.19,0,8.062-.191,11.907.058C90.68.341,92.7,2.446,93.693,5.491c1.845,5.664,3.654,11.329,5.5,16.972a5.591,5.591,0,0,0,2.031.626,12.146,12.146,0,0,1,3.453,1.061C102.307,16.268,99.379,6.2,97.347.07c4.185,0,8.062-.191,11.907.058,3.24.207,5.267,2.313,6.259,5.357,1.845,5.665,3.649,11.329,5.495,16.973a5.656,5.656,0,0,0,2.031.626,12.051,12.051,0,0,1,3.1.917C123.777,16.146,120.876,6.17,118.86.086c4.184,0,8.062-.191,11.907.059,3.241.207,5.261,2.312,6.259,5.357q1.257,3.861,2.5,7.728l7.537,24.531q-6.328-.032-12.655.042A6.217,6.217,0,0,1,133,37.664a3.379,3.379,0,0,1-1.257.159c-6.28-.085-12.56-.069-18.84,0a6.078,6.078,0,0,1-1.618-.186,3.016,3.016,0,0,1-1.363.207q-6.8-.106-13.6-.063a4.357,4.357,0,0,1-.748.063h-68.6c-3.851,7.383-11,20.219-14.671,27.538C9.329,62.422,6.46,59.818,3.914,56.922Zm7.07-21.672v-.027C10.922,35.379,10.929,35.387,10.984,35.251Z" transform="translate(0 42.108)" fill="#fff"/>
  </g>
</svg>
